<svg viewBox="0 0 746.66669 542.66669" xmlns="http://www.w3.org/2000/svg">
  <path d="m 386.00868,503.09214 c -13.74466,-2.03298 -13.3351,-1.63126 -13.3351,-13.08343 8.67061,-39.31471 8.46197,-40.88494 11.35684,-59.02605 0,0 3.57322,-12.76301 -2.60562,-13.13767 -9.75323,-0.59139 -27.22853,-0.58694 -38.94514,0.1142 -1.53621,0.0919 -3.30059,11.61507 -5.88844,16.96619 -11.30506,23.37632 -44.16998,59.18649 -54.31876,59.18649 -0.89675,0 -3.85917,1.82424 -6.58303,4.05387 -2.72375,2.22964 -6.24936,4.05387 -7.83446,4.05387 -1.58509,0 -5.42387,1.82426 -8.53043,4.05387 -3.10668,2.22962 -7.19037,4.06101 -9.07508,4.06971 -1.88468,0.009 -7.43919,1.83296 -12.34341,4.05386 -4.90419,2.22094 -10.94786,4.03804 -13.43036,4.03804 -2.48252,0 -12.67911,1.4594 -22.65912,3.2431 -22.78008,4.07143 -38.3952,4.07738 -70.00967,0.0268 -13.75191,-1.76199 -28.8438,-3.21852 -33.537521,-3.23672 -4.693735,-0.0181 -13.254541,-1.50007 -19.024011,-3.29306 -5.769481,-1.79297 -14.680914,-3.69019 -19.803196,-4.216 -5.122271,-0.52584 -14.68996,-2.70733 -21.261505,-4.84778 -6.571545,-2.14049 -14.177009,-3.89177 -16.901023,-3.89177 -10.679801,0 -13.1087485,-4.55994 -8.966864,-16.83374 2.004626,-5.94037 3.644765,-13.63914 3.644765,-17.10833 0,-3.46922 1.519061,-10.9333 3.375693,-16.58684 1.856631,-5.65352 4.13087,-16.43483 5.053847,-23.95845 2.502335,-20.39748 4.876475,-21.90689 16.870882,-10.72619 4.256865,3.96809 10.244588,8.30647 13.306054,9.64085 3.061466,1.33437 7.441567,3.42828 9.733548,4.65314 13.103697,7.00276 22.059566,10.92228 24.956791,10.92228 1.806964,0 7.525698,1.82425 12.70827,4.05388 5.18259,2.22963 11.81362,4.05387 14.73566,4.05387 2.92204,0 11.26736,1.59004 18.54518,3.53341 26.43051,7.05771 57.13238,5.06113 86.4357,-5.62101 28.41363,-10.35779 35.76748,-51.15512 12.49714,-69.33084 -9.52343,-7.43844 -23.74671,-16.14516 -26.37472,-16.14516 -1.13166,0 -5.19156,-1.74327 -9.022,-3.87392 -3.83043,-2.13066 -9.96482,-4.79526 -13.632,-5.92129 -3.66717,-1.12604 -8.16779,-2.95964 -10.00138,-4.07463 -1.83357,-1.11501 -5.95915,-2.53539 -9.16793,-3.15641 -3.20879,-0.62103 -7.50222,-2.15633 -9.54097,-3.4118 -2.03877,-1.25548 -7.70836,-3.29661 -12.59911,-4.53583 -4.89074,-1.23921 -11.83775,-3.78886 -15.4378,-5.66588 -3.60003,-1.877 -7.33128,-3.41274 -8.29165,-3.41274 -0.96038,0 -6.81614,-2.73636 -13.0128,-6.08081 -6.19666,-3.34445 -13.348436,-7.19984 -15.892852,-8.56757 C 17.18644,274.27886 26.887969,165.39104 107.72945,128.57759 c 3.15787,-1.43803 7.61683,-3.65014 9.90881,-4.91578 10.90293,-6.02066 21.49035,-10.31168 28.11362,-11.39429 54.17206,-16.207473 113.22226,-4.17784 161.13298,0.23286 18.11001,1.48919 22.76965,11.88658 13.30559,29.68995 -1.38506,2.60575 -3.35459,10.43166 -4.3766,17.39099 -1.02202,6.95931 -2.82903,14.16619 -4.0158,16.0153 -1.18668,1.8491 -2.41459,5.13274 -2.72889,7.29698 -0.76323,5.25732 -6.52914,5.93797 -13.71314,1.61881 -3.07305,-1.84763 -7.15849,-3.35928 -9.07864,-3.35928 -1.92025,0 -7.45739,-1.43987 -12.30494,-3.19969 -23.62295,-8.57588 -76.0824,-8.63291 -92.44721,-0.10059 -3.4813,1.81509 -7.33133,3.30018 -8.55562,3.30018 -25.60823,0 -34.99716,49.3479 -12.61217,66.28907 8.05773,6.09816 19.67869,13.10614 21.78489,13.13727 1.09746,0.0162 5.52229,1.85376 9.83291,4.08339 4.31062,2.22961 9.11428,4.05386 10.67478,4.05386 1.56049,0 6.14318,1.70996 10.18373,3.79989 4.04059,2.08995 10.30577,4.33996 13.92265,5.00002 3.61688,0.66008 9.23639,2.49508 12.48782,4.07776 3.25142,1.58269 8.16198,3.39285 10.91237,4.02259 6.42107,1.47017 41.9276,18.1734 43.33254,20.38479 0.58659,0.92315 3.8284,3.07534 7.20413,4.7827 6.84769,3.46323 19.54482,14.89329 24.16621,21.75439 3.70639,5.50295 7.99167,22.93916 12.39753,3.98281 3.04129,-13.08526 8.88866,-26.8146 9.85868,-38.14112 0.6127,-7.15406 2.4112,-15.13393 4.14494,-18.39082 1.76637,-3.31826 3.51787,-11.21072 4.13819,-18.64782 0.62359,-7.47653 2.40246,-15.46981 4.23359,-19.02357 1.83501,-3.56136 3.72152,-12.05294 4.503,-20.26935 0.7471,-7.85488 2.64586,-16.58384 4.27159,-19.63748 1.60972,-3.02347 3.48373,-11.41498 4.16458,-18.64782 0.68083,-7.23284 2.5561,-15.62435 4.16732,-18.64779 1.61109,-3.02346 3.53724,-11.41497 4.28009,-18.64781 0.74298,-7.23285 2.91966,-17.32816 4.83717,-22.43401 2.3122,-6.15679 3.48635,-13.15581 3.48635,-20.78134 0,-19.34407 5.30149,-17.770942 -59.88864,-17.770942 -63.57867,0 -61.07981,0.54959 -55.14325,-12.127546 1.8145,-3.874772 3.77541,-12.39969 4.35749,-18.944256 0.58194,-6.544568 2.38545,-14.910392 4.0078,-18.590726 1.62221,-3.680334 3.47297,-10.393318 4.11256,-14.917741 1.63973,-11.5978894 -9.90925,-10.897451 165.06268,-10.010931 183.38847,0.929163 164.01902,-8.6594126 159.58494,17.218959 -1.26642,7.391109 -4.29097,16.115005 -4.29097,19.993906 0,0 -4.52613,32.313067 -7.98886,36.020466 -1.29918,1.390927 -20.62785,-0.171225 -58.53496,0.493096 -53.32074,0.934413 -59.9244,1.695791 -62.14671,7.165227 -1.34081,3.299871 -4.22459,17.525108 -4.63989,22.887438 -0.46994,6.06815 10.46806,6.52512 21.35807,0.89232 4.39736,-2.27449 10.33243,-4.13543 13.18907,-4.13543 2.85664,0 8.18313,-1.64183 11.83677,-3.64849 9.13926,-5.01957 110.12721,-5.60767 121.5403,-0.70777 65.189,13.32588 0,0 65.189,13.32588 25.14723,2.98933 30.6176,13.29444 20.50096,38.61985 -1.72724,4.32385 -3.79777,13.80992 -4.60127,21.08012 -0.80336,7.27023 -2.66049,16.41155 -4.12695,20.31405 -1.46657,3.90249 -2.67786,9.01037 -2.69186,11.35083 -0.0537,8.9101 -2.81988,9.67267 -9.55519,2.63383 -7.65482,-7.99996 -14.2371,-12.81299 -22.94742,-16.77932 -3.68014,-1.67582 -7.71007,-4.24118 -8.95524,-5.7008 -1.2453,-1.45963 -3.86604,-2.65387 -5.82382,-2.65387 -1.95789,0 -6.92919,-1.72096 -11.04751,-3.82436 -4.1182,-2.10338 -10.5791,-4.28607 -14.35737,-4.8504 -3.77827,-0.56434 -10.15415,-2.47583 -14.16858,-4.24778 -10.8735,-4.79944 -70.89818,-4.92288 -80.02443,-0.16458 -3.29996,1.72059 -8.68219,3.61783 -11.96028,4.21608 -19.1939,3.50284 -32.86229,31.55083 -26.27076,53.90869 1.5666,5.31411 14.11946,18.20271 17.72832,18.20271 1.06291,0 3.9208,1.5214 6.35089,3.38086 2.42996,1.85946 7.2075,4.13005 10.61658,5.04573 3.40923,0.91571 7.99911,3.04281 10.20004,4.72689 2.20081,1.68411 5.89732,3.06201 8.21427,3.06201 2.31694,0 7.279,1.72184 11.02677,3.82632 3.74764,2.10449 10.15489,4.32597 14.23809,4.93665 4.08319,0.6107 9.70897,2.44854 12.50172,4.08412 2.79277,1.63554 8.05274,3.49004 11.68901,4.12109 3.63624,0.63105 8.51191,2.45336 10.83486,4.04958 2.32282,1.59622 6.58354,3.39915 9.46806,4.00652 2.88453,0.60737 6.52527,2.48098 8.09062,4.16359 1.56521,1.68259 5.00993,3.52162 7.65468,4.08671 2.64487,0.5651 5.25547,1.73057 5.80142,2.58994 0.54596,0.85937 3.74251,3.2596 7.10349,5.33384 11.96052,7.38169 35.28138,32.45112 35.28138,37.92681 0,1.30913 1.61959,4.92941 3.59899,8.04508 7.88734,12.41471 7.30901,57.32703 -0.98201,76.25744 -7.44565,17.00048 -23.99057,38.9456 -36.34852,48.21259 -3.54724,2.66001 -8.94686,6.84304 -11.99916,9.29562 -3.05242,2.4526 -6.12997,4.45927 -6.83919,4.45927 -0.70923,0 -3.74815,1.82423 -6.75307,4.05386 -3.0049,2.22964 -6.53765,4.05388 -7.85032,4.05388 -1.3127,0 -4.24122,1.41899 -6.50765,3.15333 -2.26657,1.73434 -7.80597,4.02149 -12.30984,5.08257 -4.50387,1.06107 -10.43918,3.21411 -13.18956,4.78452 -2.75039,1.57041 -9.12627,3.36322 -14.16859,3.98404 -5.04244,0.62083 -15.72342,2.5215 -23.73566,4.22375 -59.07987,8.44925 -120.34033,-9.8419 -174.62512,-20.35562 z m -184.19211,13.94752 c 11.5817,-0.94143 21.58218,-2.75087 27.14879,-4.91217 4.84709,-1.88197 9.92557,-3.42173 11.28552,-3.42173 2.22227,0 15.2025,-5.87265 37.90964,-17.15142 31.90965,-15.84975 69.02114,-75.05317 50.10393,-75.58964 -7.30431,-0.20714 -8.73659,-9.88376 -1.67273,-23.21364 13.66688,-25.79067 -1.52759,-64.049 -31.89791,-80.31551 -3.40923,-1.82598 -11.07429,-6.16769 -17.03348,-9.64823 -5.95907,-3.48053 -11.80226,-6.36788 -12.9848,-6.41629 -1.18253,-0.0486 -5.22886,-1.61602 -8.99187,-3.48355 -3.76303,-1.86751 -10.29655,-4.34569 -14.51895,-5.50707 -13.47626,-3.70659 -29.15975,-9.17473 -35.40785,-12.34514 -3.3336,-1.69154 -7.15994,-3.07552 -8.50296,-3.07552 -1.34299,0 -5.79165,-1.73265 -9.88585,-3.85033 -4.09419,-2.11768 -9.15199,-4.37769 -11.23953,-5.02222 -35.36132,-10.9179 -45.08551,-54.43121 -17.65128,-78.98498 2.75038,-2.46159 5.75676,-4.49702 6.68087,-4.52317 0.92407,-0.0262 5.28377,-1.9137 9.68821,-4.19458 17.21963,-8.91733 85.40985,-9.86269 104.29334,-1.44592 22.8179,10.17045 29.15053,5.04964 35.19449,-28.45953 4.77352,-26.46609 3.10842,-28.72977 -22.7019,-30.86296 -9.05975,-0.74878 -22.09805,-2.66457 -28.974,-4.2573 -20.10786,-4.65776 -80.52658,-4.19228 -94.02386,0.72438 -31.46706,7.87017 -63.18942,21.86695 -86.624216,42.55374 -10.321884,9.39295 -26.357309,30.41975 -28.578358,37.47406 -0.662435,2.1039 -2.989239,7.99905 -5.170714,13.10033 -15.740029,36.80743 7.026286,86.67195 49.304873,107.9913 2.330226,1.17503 9.112445,4.61313 15.071595,7.64021 12.92427,6.56516 30.0562,13.40171 38.90345,15.52456 3.51941,0.84447 9.30284,2.97657 12.85204,4.73796 3.5492,1.76141 7.63307,3.20257 9.07527,3.20257 1.44218,0 6.32281,1.82423 10.84582,4.05387 4.52301,2.22963 9.18622,4.05836 10.3627,4.06385 1.17645,0.004 4.01429,0.98537 6.30627,2.17749 2.29198,1.1921 9.35303,4.86721 15.69124,8.1669 85.77388,44.65407 6.62248,127.85192 -90.70161,95.33845 -5.04235,-1.68453 -12.90084,-3.60344 -17.46329,-4.26425 -4.56246,-0.66081 -10.938336,-2.50233 -14.168627,-4.09226 -3.230291,-1.58992 -8.272252,-3.39433 -11.204356,-4.0098 -6.120362,-1.28476 -28.214033,-11.57307 -29.626344,-13.79607 -8.469556,-13.33118 -23.895112,-7.63152 -26.682534,9.85908 -1.190203,7.46832 -3.261739,16.49756 -4.603412,20.06496 -9.043924,24.04719 -3.986189,39.72793 12.814047,39.72793 2.30213,0 9.771987,1.82423 16.599685,4.05387 6.827697,2.22963 15.659596,4.05387 19.626442,4.05387 3.966836,0 12.460774,1.50265 18.875416,3.33923 8.341511,2.38827 19.911953,3.75527 40.628363,4.80008 15.93098,0.80346 29.33561,1.82095 29.78808,2.26109 0.88531,0.86125 12.23736,0.29268 41.26035,-2.0665 z m 361.25832,-63.36455 c 44.21744,-10.59802 52.9865,-70.65069 17.939,-80.70242 -47.62329,-22.82884 -97.02189,-55.9235 -148.18625,-66.96042 -4.98051,23.04669 -40.13158,95.71745 -22.37696,115.90754 42.66666,23.07122 103.71543,47.46853 152.62421,31.75566 z" />
</svg>
