<svg width="68" height="68" viewBox="0 0 68 68" fill="none" xmlns="http://www.w3.org/2000/svg">
<path fill-rule="evenodd" clip-rule="evenodd" d="M47.5653 25.4813C52.8817 28.0145 54.8889 23.4962 57.3021 27.1106C60.6725 32.1584 48.3922 39.3864 40.3085 29.4053C31.754 18.8426 43.5604 0.683608 54.9236 7.18262C60.0637 10.1225 58.1143 16.9629 53.8213 15.0959C53.2887 14.8642 50.8639 13.0847 47.7234 14.9447C45.5351 16.2407 42.4171 21.79 47.5653 25.4818V25.4813Z" fill="#8A2433"/>
<path fill-rule="evenodd" clip-rule="evenodd" d="M26.0037 12.5601C31.2332 29.5391 31.9922 30.7932 30.1927 32.0241C28.6915 33.051 26.1087 33.4535 25.1512 31.1022C24.0138 28.3091 24.782 27.2728 22.2389 26.965C13.7586 25.9386 13.4328 25.4093 12.9098 26.3151C12.6219 26.8137 10.8509 32.3011 6.92086 29.5692C4.61475 27.9661 6.47497 27.3049 14.379 11.7534C17.3423 5.92336 18.9295 1.84832 22.2913 3.29245C23.0251 3.60755 23.7032 3.89905 26.0042 12.5601H26.0037ZM21.6797 19.8642C20.2223 14.2913 20.1632 13.9507 19.7339 14.1688C19.6589 14.2069 16.1694 20.379 16.1855 20.6179C16.211 20.9942 16.2967 21.2978 20.8349 21.3909C22.4782 21.4245 21.9 20.6468 21.6797 19.8642Z" fill="#8A2433"/>
<path fill-rule="evenodd" clip-rule="evenodd" d="M47.2876 48.0703C54.6921 57.9367 37.3784 65.4107 34.7705 62.9979C34.5752 62.8173 34.0698 63.0886 28.445 50.5564C25.8057 44.6758 23.0296 39.1627 30.55 35.875C34.7979 34.0178 43.1058 37.0054 41.5447 44.1262C41.5008 44.3262 40.7984 45.3647 41.7443 45.388C42.9712 45.418 44.294 45.9149 44.5059 45.9946C46.0817 46.5865 45.9065 46.8457 47.2876 48.0703ZM32.4872 46.1912C32.6924 46.5634 32.833 47.4913 34.8975 46.074C39.8944 42.6434 35.1829 38.6152 31.4216 41.57C30.3483 42.4132 31.9614 44.98 32.4872 46.1912ZM42.8897 51.1087C42.4181 50.6398 41.5591 49.5778 39.1731 49.9905C37.3732 50.3018 35.2235 51.6703 35.1413 51.8524C34.9736 52.2224 35.0363 52.2676 36.9571 56.5939C37.5936 58.0275 38.0291 57.6756 39.4561 57.0294C45.7269 54.1896 43.07 51.3833 42.8897 51.1087Z" fill="#8A2433"/>
</svg>
