<svg width="32" height="32" viewBox="0 0 32 32" fill="none" xmlns="http://www.w3.org/2000/svg">
<path fill-rule="evenodd" clip-rule="evenodd" d="M22.2689 12.3407C24.4777 13.3931 25.3116 11.5159 26.3142 13.0176C27.7145 15.1148 22.6124 18.1178 19.2539 13.971C15.6998 9.58253 20.605 2.03806 25.326 4.73819C27.4615 5.9596 26.6516 8.80158 24.868 8.0259C24.6468 7.92961 23.6393 7.19031 22.3346 7.96308C21.4254 8.50152 20.13 10.8071 22.2689 12.3409V12.3407Z" fill="#8A2433"/>
<path fill-rule="evenodd" clip-rule="evenodd" d="M13.3107 6.97191C15.4834 14.0261 15.7987 14.5471 15.0511 15.0585C14.4274 15.4852 13.3543 15.6524 12.9565 14.6755C12.484 13.5151 12.8031 13.0845 11.7466 12.9566C8.22329 12.5302 8.08795 12.3103 7.87065 12.6867C7.75104 12.8938 7.01527 15.1736 5.38246 14.0386C4.42436 13.3726 5.19721 13.0979 8.48107 6.63676C9.7122 4.21456 10.3717 2.52151 11.7683 3.1215C12.0732 3.25242 12.355 3.37353 13.3109 6.97191H13.3107ZM11.5142 10.0065C10.9088 7.69116 10.8842 7.54965 10.7058 7.64026C10.6747 7.65609 9.2249 10.2204 9.2316 10.3196C9.24218 10.476 9.27781 10.6021 11.1633 10.6408C11.846 10.6548 11.6058 10.3317 11.5142 10.0065Z" fill="#8A2433"/>
<path fill-rule="evenodd" clip-rule="evenodd" d="M22.1536 21.7253C25.23 25.8244 18.0367 28.9296 16.9532 27.9272C16.8721 27.8522 16.6621 27.9649 14.3252 22.7582C13.2286 20.315 12.0752 18.0244 15.1997 16.6585C16.9646 15.8869 20.4162 17.1282 19.7676 20.0866C19.7494 20.1697 19.4576 20.6012 19.8506 20.6109C20.3603 20.6233 20.9099 20.8298 20.9979 20.8629C21.6526 21.1088 21.5798 21.2165 22.1536 21.7253ZM16.0046 20.9446C16.0898 21.0992 16.1483 21.4847 17.006 20.8959C19.082 19.4706 17.1245 17.797 15.5618 19.0246C15.1159 19.375 15.7861 20.4414 16.0046 20.9446ZM20.3265 22.9876C20.1305 22.7928 19.7736 22.3516 18.7823 22.523C18.0345 22.6524 17.1414 23.221 17.1072 23.2966C17.0376 23.4503 17.0636 23.4691 17.8617 25.2665C18.1261 25.8622 18.3071 25.716 18.8999 25.4475C21.5052 24.2677 20.4013 23.1017 20.3265 22.9876Z" fill="#8A2433"/>
</svg>
