<svg width="32" height="32" viewBox="0 0 32 32" fill="none" xmlns="http://www.w3.org/2000/svg">
<path fill-rule="evenodd" clip-rule="evenodd" d="M12.8996 16.2066C12.9089 15.9552 12.9771 14.1288 13.7708 13.1864C16.865 9.51316 20.739 13.574 22.5127 12.4755C24.5189 11.233 22.0514 9.50639 21.0872 8.07335C18.6735 4.48575 23.484 2.84675 23.7002 5.06333C23.7952 6.03707 23.1361 6.38223 23.0742 6.47839C22.7431 6.99233 27.4771 10.0078 24.939 13.7294C22.3949 17.4598 18.1613 14.2868 16.7685 14.6673C14.5254 15.2802 16.4859 18.1008 16.8197 18.6194C20.6123 24.5133 16.1126 27.7002 13.7293 27.7183C9.35504 27.7515 6.87913 24.8756 8.73611 23.7386C9.65233 23.1777 12.8936 26.2896 14.9013 24.2572C17.0038 22.1289 13.2198 19.936 12.8996 16.2066Z" fill="#8A2433"/>
<path fill-rule="evenodd" clip-rule="evenodd" d="M7.12974 14.6647C7.01174 14.6322 6.88689 14.629 6.7689 14.5965C2.27081 13.3606 1.972 8.08747 4.59194 5.73518C10.8569 0.110011 15.3875 10.1375 10.467 13.6307C8.59524 14.9594 7.19087 14.6637 7.12974 14.6647ZM10.2235 9.11373C9.30164 4.61271 5.5631 7.44092 5.38049 9.10878C4.97919 12.7725 10.1345 13.2909 10.2235 9.11373Z" fill="#8A2433"/>
<path fill-rule="evenodd" clip-rule="evenodd" d="M27.973 20.5816C28.98 22.3884 29.4978 22.817 27.8401 24.0715C23.5842 27.292 23.2163 26.9818 22.8726 26.6923C22.6999 26.5467 20.1146 22.3503 20.0623 21.6249C20.0287 21.1583 19.9888 20.6048 24.3309 17.6287C26.0115 16.4768 26.15 17.4377 27.1692 19.1969C27.4242 19.637 27.4223 19.6234 27.6669 20.0551C27.9444 20.5448 27.9491 20.5393 27.973 20.5817V20.5816Z" fill="#8A2433"/>
</svg>
