<svg width="40" height="40" viewBox="0 0 40 40" fill="none" xmlns="http://www.w3.org/2000/svg">
<path d="M33.4766 7.21094C34.4141 9.37891 35 12.0156 35 14.5352C35 23.5 29.2578 30.4141 21.3477 31C21.0547 31 20.7031 31 20.3516 31C16.7773 31 13.4961 29.0664 11.7383 25.8438C11.5039 25.375 11.2695 24.8477 11.0938 24.3789C9.04297 26.4297 7.46094 29.125 6.81641 32.1719C6.75781 32.582 6.34766 32.875 5.9375 32.875C5.82031 32.875 5.76172 32.875 5.70312 32.8164C5.23438 32.7578 4.88281 32.2891 5 31.7617C5.82031 27.9531 7.87109 24.6719 10.6836 22.2695C10.625 21.918 10.625 21.5664 10.625 21.2734C10.625 15.7656 14.9609 11.3125 20.3516 11.3711H24.3945C27.5586 11.3711 30.2539 9.78906 31.7773 7.15234C31.8945 6.85938 32.1875 6.74219 32.4219 6.68359C32.7148 6.625 33.0078 6.68359 33.2422 6.91797C33.3008 6.97656 33.418 7.09375 33.4766 7.21094ZM21.1719 29.125C28.0859 28.5977 33.125 22.5039 33.125 14.5352C33.125 12.8945 32.832 11.1367 32.3047 9.61328C30.3711 11.957 27.5 13.2461 24.3359 13.2461H20.3516C16.1914 13.2461 12.6758 16.7031 12.4414 20.8633C15.2539 19.0469 18.5938 17.9336 22.1094 17.9336H24.6289C25.0977 17.9336 25.5664 18.4023 25.5664 18.8711C25.5664 19.3398 25.0977 19.75 24.6289 19.75H22.1094C18.5938 19.75 15.3125 20.9805 12.6172 23.0312C12.7344 23.6172 12.9688 24.3203 13.3789 24.9648C14.7266 27.543 17.4219 29.125 20.293 29.125C20.5859 29.125 20.8789 29.125 21.1719 29.125Z" fill="#8A2433"/>
</svg>
