<svg width="32" height="32" viewBox="0 0 32 32" fill="none" xmlns="http://www.w3.org/2000/svg">
<g clip-path="url(#clip0_552_18348)">
<path fill-rule="evenodd" clip-rule="evenodd" d="M4.61992 21.6058C4.87535 20.5811 4.91393 20.4264 7.95728 8.83358C9.29011 3.75655 9.21638 3.74525 9.35375 3.31057C9.56866 2.63029 9.86344 2.99515 12.5874 3.80288C15.4414 4.6492 23.3344 7.14229 23.7392 7.2253C24.3285 7.34618 23.5606 7.89953 23.512 7.93462C22.9874 8.31269 20.533 10.2248 20.3501 10.3477C20.0368 10.5583 19.4637 8.93944 19.1003 8.94873C18.4197 8.96613 19.3816 10.0628 19.6632 10.5949C19.8036 10.8602 19.6871 10.9077 18.3334 11.9018C17.9017 12.2188 17.903 11.9014 17.6139 11.4616C17.3433 11.0497 17.1284 10.5468 16.8645 10.7565C16.6254 10.9464 16.7731 11.1801 17.0651 11.6316C17.4665 12.2524 17.7888 12.4207 17.1691 12.8257C16.5845 13.2078 16.1849 13.5634 16.024 13.6889C15.6834 13.9545 15.125 12.2037 14.6961 12.3032C13.9185 12.4836 15.6699 13.9045 15.2866 14.2357C14.581 14.8455 13.9194 15.2929 13.7948 15.3771C13.5344 15.5532 12.9543 14.0271 12.6432 14.0537C11.7908 14.1263 13.3871 15.5455 13.1547 15.8498C13.0422 15.9972 11.6941 16.9746 11.6592 16.9964C11.2631 17.2424 10.8349 15.5674 10.3989 15.6946C9.73803 15.8875 11.4182 17.2106 10.8876 17.5923C9.57351 18.5374 9.60535 18.574 9.48889 18.6527C9.1975 18.8495 8.57328 17.2034 8.26258 17.3227C7.7939 17.5027 8.27795 17.9848 8.82591 18.8853C8.97868 19.1364 8.72128 19.2421 7.49985 20.1514C5.27464 21.8082 4.35661 22.9258 4.62004 21.6059L4.61992 21.6058ZM11.5093 7.8241C11.4077 8.25171 10.754 11.0003 10.2063 13.1618C10.201 13.1827 10.1171 13.5138 10.2647 13.4254C10.8779 13.0579 12.8442 11.4733 13.0631 11.297C16.6576 8.40039 17.0727 8.37325 16.7494 8.15872C16.7056 8.12963 11.9482 6.71803 11.8487 6.78182C11.7401 6.85147 11.6557 7.20394 11.5094 7.82417L11.5093 7.8241Z" fill="#8A2433"/>
<path fill-rule="evenodd" clip-rule="evenodd" d="M22.1741 20.8872C23.0985 19.3433 23.4225 19.6103 25.123 18.1922C26.3331 17.1832 26.0798 15.8872 24.7633 15.4491C22.4853 14.6911 22.3086 17.9003 20.1325 16.6201C19.1074 16.017 20.1564 14.2931 20.3272 14.0796C23.4464 10.1791 30.6408 13.1526 28.7749 18.1478C27.8348 20.6645 25.8143 21.2197 25.5883 21.3414C24.8121 21.7591 24.7533 22.7236 24.487 23.1461C24.2639 23.5001 20.5411 24.6614 22.1742 20.8872L22.1741 20.8872Z" fill="#8A2433"/>
<path fill-rule="evenodd" clip-rule="evenodd" d="M24.0013 26.9347C22.2321 30.137 19.4214 26.3849 21.548 24.9048C22.0345 24.5662 24.466 24.4383 24.0013 26.9347Z" fill="#8A2433"/>
<path fill-rule="evenodd" clip-rule="evenodd" d="M15.0516 25.1864C11.8106 31.0529 6.66148 24.1793 10.5572 21.4678C11.4485 20.8475 15.9029 20.6131 15.0516 25.1864Z" fill="#8A2433"/>
</g>
<defs>
<clipPath id="clip0_552_18348">
<rect width="32" height="32" fill="white"/>
</clipPath>
</defs>
</svg>
