<svg width="40" height="40" viewBox="0 0 40 40" fill="none" xmlns="http://www.w3.org/2000/svg">
<path d="M29.3164 11.3125C27.5586 11.3125 26.0352 9.84766 26.0352 8.03125C26.0352 6.27344 27.5 4.75 29.3164 4.75C31.1328 4.75 32.5391 6.27344 32.5391 8.03125C32.5391 9.84766 31.0742 11.3125 29.3164 11.3125ZM29.3164 6.625C28.5547 6.625 27.9102 7.26953 27.9102 8.03125C27.9102 8.85156 28.4961 9.4375 29.3164 9.4375C30.0781 9.4375 30.7227 8.85156 30.7227 8.03125C30.7227 7.26953 30.0781 6.625 29.3164 6.625ZM10.625 11.3125C8.80859 11.3125 7.34375 9.84766 7.34375 8.03125C7.34375 6.27344 8.80859 4.75 10.625 4.75C12.3828 4.75 13.8477 6.27344 13.8477 8.03125C13.8477 9.84766 12.3828 11.3125 10.625 11.3125ZM10.625 6.625C9.80469 6.625 9.21875 7.26953 9.21875 8.03125C9.21875 8.85156 9.80469 9.4375 10.625 9.4375C11.3867 9.4375 11.9727 8.85156 11.9727 8.03125C11.9727 7.26953 11.3867 6.625 10.625 6.625ZM13.4375 18.8125C13.9062 18.8125 14.375 19.2812 14.375 19.75V33.8125C14.375 34.3398 13.9062 34.75 13.4375 34.75C12.9102 34.75 12.5 34.3398 12.5 33.8125V26.3125H8.75V33.8125C8.75 34.3398 8.39844 34.75 7.87109 34.75C7.34375 34.75 6.93359 34.3398 6.93359 33.8125V19.75C6.93359 19.2812 7.34375 18.8125 7.87109 18.8125C8.33984 18.8125 8.75 19.2812 8.75 19.75V24.4375H12.5V19.75C12.5 19.2812 12.9102 18.8125 13.4375 18.8125ZM32.5391 19.3398L35.9961 26.8398C36.1719 27.1328 36.1719 27.4844 35.9961 27.7773C35.8203 28.0703 35.5273 28.1875 35.1758 28.1875H32.8906V33.8125C32.8906 34.3398 32.4219 34.75 31.9531 34.75C31.4844 34.75 31.0742 34.3398 31.0742 33.8125V28.1875H27.3828V33.8125C27.3828 34.3398 26.9727 34.75 26.4453 34.75C25.918 34.75 25.5078 34.3398 25.5078 33.8125V28.1875H23.2227C22.9297 28.1875 22.6367 28.0703 22.5195 27.7773C22.3438 27.4844 22.3438 27.1328 22.4609 26.8398L26.1523 19.3398C26.3867 18.8711 26.9727 18.6953 27.4414 18.9297C27.9102 19.1641 28.0859 19.75 27.8516 20.2188L24.7461 26.3125H33.9453L30.8398 20.2188C30.6055 19.75 30.7812 19.1641 31.25 18.9297C31.7188 18.6953 32.3047 18.8711 32.5391 19.3398ZM37.168 21.2148C37.4609 21.625 37.2852 22.2109 36.7578 22.4453C36.6406 22.5625 36.4648 22.5625 36.3477 22.5625C36.0547 22.5625 35.7031 22.3867 35.5859 22.0938L31.9531 15.5898C31.4258 14.7109 30.4883 14.125 29.4922 14.125H29.1992C28.2031 14.125 27.2656 14.7109 26.6797 15.5898L23.1055 22.0938C22.8125 22.5625 22.2266 22.7383 21.8164 22.4453C21.3477 22.2109 21.1719 21.625 21.4648 21.2148L25.0977 14.7109C25.918 13.1875 27.5 12.25 29.1992 12.25H29.4922C31.1914 12.25 32.7734 13.1875 33.5352 14.7109L37.168 21.2148ZM15.3125 14.7109L18.8867 21.2148C19.1797 21.625 19.0039 22.2109 18.5352 22.4453C18.418 22.5625 18.2422 22.5625 18.125 22.5625C17.7734 22.5625 17.4219 22.3867 17.3047 22.0938L13.6719 15.5898C13.1445 14.7109 12.207 14.125 11.2109 14.125H9.98047C8.98438 14.125 8.04688 14.7109 7.51953 15.5898L3.94531 22.0938C3.65234 22.5625 3.06641 22.7383 2.65625 22.4453C2.1875 22.2109 2.01172 21.625 2.30469 21.2148L5.87891 14.7109C6.69922 13.1875 8.28125 12.25 9.98047 12.25H11.2109C12.9102 12.25 14.4922 13.1875 15.3125 14.7109Z" fill="#8A2433"/>
</svg>
