<svg width="40" height="40" viewBox="0 0 40 40" fill="none" xmlns="http://www.w3.org/2000/svg">
<path d="M10.625 23.5C7.46094 23.5 5 20.9805 5 17.875C5 14.7695 7.46094 12.25 10.625 12.25C13.7305 12.25 16.25 14.7695 16.25 17.875C16.25 21.0391 13.7305 23.5 10.625 23.5ZM10.625 14.125C8.51562 14.125 6.875 15.8242 6.875 17.875C6.875 19.9844 8.51562 21.625 10.625 21.625C12.6758 21.625 14.375 19.9844 14.375 17.875C14.375 15.8242 12.6758 14.125 10.625 14.125ZM12.5 25.375C16.6016 25.375 20 28.7734 20 32.875C20 33.9297 19.1211 34.75 18.125 34.75H3.125C2.07031 34.75 1.25 33.9297 1.25 32.875C1.25 28.7734 4.58984 25.375 8.75 25.375H12.5ZM3.125 32.875H18.125C18.125 29.8281 15.5469 27.25 12.5 27.25H8.75C5.64453 27.25 3.125 29.8281 3.125 32.875ZM35.9375 4.75C37.4609 4.75 38.75 6.03906 38.75 7.5625V26.3125C38.75 27.8945 37.4609 29.125 35.9375 29.125H21.875C21.3477 29.125 20.9375 28.7148 20.9375 28.1875C20.9375 27.7188 21.3477 27.25 21.875 27.25H23.75V24.4375C23.75 22.9141 24.9805 21.625 26.5625 21.625H32.1875C33.7109 21.625 35 22.9141 35 24.4375V27.25H35.9375C36.4062 27.25 36.875 26.8398 36.875 26.3125V7.5625C36.875 7.09375 36.4062 6.625 35.9375 6.625H13.4375C12.9102 6.625 12.5 7.09375 12.5 7.5625V9.4375C12.5 9.96484 12.0312 10.375 11.5625 10.375C11.0352 10.375 10.625 9.96484 10.625 9.4375V7.5625C10.625 6.03906 11.8555 4.75 13.4375 4.75H35.9375ZM33.125 27.25V24.4375C33.125 23.9688 32.6562 23.5 32.1875 23.5H26.5625C26.0352 23.5 25.625 23.9688 25.625 24.4375V27.25H33.125Z" fill="#8A2433"/>
</svg>
