<svg width="32" height="32" viewBox="0 0 32 32" fill="none" xmlns="http://www.w3.org/2000/svg">
<path fill-rule="evenodd" clip-rule="evenodd" d="M23.5212 8.24229C23.5842 8.45726 26.12 17.8772 26.1331 18.0207C26.1949 18.6988 24.1113 18.3778 20.7529 19.5826C18.9207 20.2399 17.8414 21.3615 17.6362 21.5747C17.621 21.5312 17.5674 21.5082 17.5522 21.4647C17.414 21.0693 15.0046 11.9413 14.7858 11.1124C14.7373 10.9286 14.2925 10.3911 16.0844 9.0975C18.7298 7.18775 22.8378 6.90698 23.1831 7.28677C23.3727 7.49538 23.5025 8.1686 23.5212 8.24229ZM18.4325 11.5822C18.1291 11.7342 17.0785 12.1478 17.4411 12.4131C17.7387 12.6308 18.3154 11.5379 21.5981 11.1507C21.9433 11.11 21.8923 10.7126 21.491 10.7681C19.52 11.0405 18.775 11.4551 18.4325 11.5822ZM21.1586 13.8144C21.3777 13.7788 21.9554 13.7407 21.8828 13.4722C21.7467 12.9693 17.7076 14.4258 17.878 14.9018C18.0091 15.2683 18.729 14.4875 20.4096 14.0057C20.7837 13.8985 20.7801 13.9059 21.1586 13.8144Z" fill="#8A2433"/>
<path fill-rule="evenodd" clip-rule="evenodd" d="M5.54745 12.9663C5.32391 12.1182 5.20412 11.9196 5.9872 11.5341C8.08011 10.5039 8.60169 10.3945 10.4938 10.145C11.5634 10.0039 14.1061 10.1149 14.2907 10.799C15.8718 16.66 17.0211 21.0697 17.2125 21.6372C16.7732 21.6657 16.2282 21.16 14.3883 21.3843C12.0338 21.6714 9.50479 22.6428 9.09563 22.8C9.03187 22.8244 8.40784 23.0642 8.26006 22.9737C8.07583 22.861 8.18879 22.7893 7.05526 18.599L5.54745 12.9663ZM9.48712 14.3327C10.7215 13.9765 10.7177 13.9728 11.6723 13.8577C12.5059 13.7572 12.691 13.8908 12.7738 13.69C13.0782 12.9526 8.52709 13.9824 8.37358 14.4341C8.23023 14.8559 9.18418 14.4444 9.48712 14.3327ZM12.9427 17.3157C13.0605 17.3172 13.7233 17.3865 13.7335 17.1739C13.7596 16.6293 11.1516 17.083 9.90417 17.5537C9.84729 17.5752 8.98625 17.9001 9.3852 18.109C9.66249 18.2542 10.308 17.4702 12.9427 17.3157Z" fill="#8A2433"/>
<path fill-rule="evenodd" clip-rule="evenodd" d="M5.5476 12.967C6.05023 14.8446 6.55278 16.7222 7.05541 18.5998C8.18894 22.79 8.07598 22.8617 8.26021 22.9744C8.40803 23.0648 9.03202 22.8252 9.09577 22.8007C9.50495 22.6436 12.034 21.6722 14.3885 21.3851C16.2284 21.1607 16.7734 21.6664 17.2127 21.6379C17.4089 21.6843 17.4182 21.7026 17.6364 21.575C17.8416 21.3618 18.9209 20.2402 20.7531 19.5829C24.1114 18.378 26.195 18.6991 26.1332 18.021C26.1201 17.8775 23.5844 8.45753 23.5214 8.24257C23.8889 7.93122 24.5201 8.00812 24.6492 8.38218C24.7902 8.7906 24.7496 8.79883 26.0504 13.5983C27.4329 18.699 27.4538 18.6938 27.5256 19.1475C27.5978 19.6035 27.3218 19.543 21.7629 21.0436C19.4156 21.6773 19.3181 21.6074 18.5551 22.567C17.4818 23.9168 17.0593 22.4799 15.4695 22.7444C14.6062 22.8881 9.67212 24.2796 9.17021 24.4211C8.21647 24.6901 7.59276 25.0005 7.42997 24.2712C7.01992 22.4337 4.53529 13.8353 4.63105 13.4725C4.71242 13.1642 5.26343 13.1025 5.5477 12.967L5.5476 12.967Z" fill="#8A2433"/>
</svg>
