<svg width="40" height="40" viewBox="0 0 40 40" fill="none" xmlns="http://www.w3.org/2000/svg">
<path d="M34.0625 31C34.5312 31 35 31.4688 35 31.9375C35 32.4648 34.5312 32.875 34.0625 32.875H9.6875C7.05078 32.875 5 30.8242 5 28.1875V7.5625C5 7.09375 5.41016 6.625 5.9375 6.625C6.40625 6.625 6.875 7.09375 6.875 7.5625V28.1875C6.875 29.7695 8.10547 31 9.6875 31H34.0625ZM12.207 23.2656C11.8555 23.6172 11.2109 23.6172 10.8594 23.2656C10.5078 22.9141 10.5078 22.2695 10.8594 21.918L17.4219 15.3555C17.7734 15.0039 18.418 15.0039 18.7695 15.3555L23.75 20.3359L29.9023 14.125H24.6875C24.1602 14.125 23.75 13.7148 23.75 13.1875C23.75 12.7188 24.1602 12.25 24.6875 12.25H32.1875C32.6562 12.25 33.125 12.7188 33.125 13.1875V20.6875C33.125 21.2148 32.6562 21.625 32.1875 21.625C31.6602 21.625 31.25 21.2148 31.25 20.6875V15.4727L24.3945 22.3281C24.043 22.6797 23.3984 22.6797 23.0469 22.3281L18.125 17.3477L12.207 23.2656Z" fill="#8A2433"/>
</svg>
