<svg width="68" height="68" viewBox="0 0 68 68" fill="none" xmlns="http://www.w3.org/2000/svg">
<path fill-rule="evenodd" clip-rule="evenodd" d="M49.9827 17.5144C50.1165 17.9712 55.505 37.9886 55.5328 38.2935C55.6642 39.7345 51.2365 39.0523 44.1 41.6126C40.2066 43.0094 37.9131 45.3927 37.477 45.8458C37.4447 45.7532 37.3308 45.7045 37.2985 45.612C37.0049 44.7718 31.8848 25.3748 31.4199 23.6135C31.3167 23.2228 30.3716 22.0806 34.1794 19.3317C39.8008 15.2735 48.5303 14.6768 49.2641 15.4839C49.6671 15.9272 49.943 17.3578 49.9827 17.5144ZM39.1692 24.6117C38.5244 24.9346 36.2918 25.8136 37.0624 26.3774C37.6949 26.8399 38.9202 24.5174 45.8959 23.6948C46.6296 23.6083 46.5212 22.7639 45.6685 22.8817C41.48 23.4607 39.897 24.3416 39.1692 24.6117ZM44.9621 29.3552C45.4277 29.2794 46.6554 29.1984 46.501 28.628C46.2117 27.5592 37.6287 30.6544 37.9907 31.6659C38.2695 32.4447 39.7992 30.7855 43.3704 29.7617C44.1654 29.5338 44.1578 29.5495 44.9621 29.3552Z" fill="#8A2433"/>
<path fill-rule="evenodd" clip-rule="evenodd" d="M11.7883 27.554C11.3133 25.7517 11.0587 25.3298 12.7228 24.5106C17.1702 22.3214 18.2786 22.089 22.2993 21.5587C24.5722 21.2589 29.9755 21.4947 30.3677 22.9485C33.7276 35.4031 36.1698 44.7737 36.5766 45.9796C35.6431 46.0403 34.4849 44.9656 30.5752 45.4423C25.5719 46.0524 20.1976 48.1165 19.3282 48.4506C19.1927 48.5026 17.8666 49.0119 17.5526 48.8197C17.1611 48.5802 17.4012 48.4279 14.9924 39.5236L11.7883 27.554ZM20.1601 30.4576C22.7831 29.7007 22.7752 29.6927 24.8036 29.4483C26.5751 29.2348 26.9683 29.5186 27.1444 29.0919C27.791 27.5249 18.12 29.7132 17.7938 30.6732C17.4892 31.5695 19.5163 30.695 20.1601 30.4576ZM27.5033 36.7964C27.7535 36.7996 29.1619 36.947 29.1836 36.4952C29.2392 35.3379 23.697 36.302 21.0463 37.3023C20.9255 37.3479 19.0957 38.0384 19.9435 38.4823C20.5328 38.7907 21.9045 37.1248 27.5033 36.7964Z" fill="#8A2433"/>
<path fill-rule="evenodd" clip-rule="evenodd" d="M11.7886 27.5535C12.8567 31.5434 13.9246 35.5332 14.9927 39.523C17.4015 48.4274 17.1614 48.5797 17.5529 48.8192C17.867 49.0112 19.193 48.502 19.3285 48.45C20.198 48.1161 25.5722 46.052 30.5755 45.4418C34.4852 44.9651 35.6434 46.0397 36.5769 45.979C36.9939 46.0776 37.0137 46.1165 37.4772 45.8454C37.9133 45.3923 40.2068 43.009 44.1002 41.6122C51.2367 39.0519 55.6644 39.7341 55.5331 38.2932C55.5052 37.9882 50.1167 17.9708 49.9829 17.514C50.7638 16.8524 52.1051 17.0158 52.3796 17.8107C52.6792 18.6786 52.5929 18.6961 55.3572 28.895C58.2948 39.7339 58.3393 39.7228 58.492 40.687C58.6453 41.656 58.0589 41.5274 46.2461 44.7163C41.258 46.0629 41.0509 45.9144 39.4295 47.9535C37.1488 50.8216 36.2509 47.7682 32.8726 48.3305C31.0382 48.6358 20.5532 51.5926 19.4867 51.8935C17.46 52.465 16.1346 53.1245 15.7886 51.5748C14.9173 47.6702 9.63747 29.3985 9.84095 28.6276C10.0139 27.9726 11.1848 27.8414 11.7888 27.5533L11.7886 27.5535Z" fill="#8A2433"/>
</svg>
