<svg width="1440" height="480" viewBox="0 0 1440 480" fill="none" xmlns="http://www.w3.org/2000/svg">
<g clip-path="url(#clip0_800_106606)">
<rect width="1440" height="480" fill="url(#paint0_linear_800_106606)"/>
<path fill-rule="evenodd" clip-rule="evenodd" d="M1496.39 95.3158C1493.49 113.531 1488.95 112.034 1443.44 153.495C1422.48 172.585 1403.82 187.766 1364.52 225.112C1356.2 233.025 1314.98 249.171 1299.35 256.889C1292.94 260.056 1286.62 262.648 1286 258.168C1285.67 255.788 1318.28 191.381 1323.33 186.402C1324.57 185.181 1440.47 78.3613 1457.84 70.4738C1471.16 64.4304 1496.32 68.2807 1496.39 95.3158ZM1441.77 90.0587C1436.2 94.7356 1430.8 94.6702 1435.91 99.7343C1460.72 124.327 1460.06 129.305 1465.18 125.822C1475.79 118.6 1473.98 116.204 1473.34 115.359C1472.96 114.845 1448.7 87.7177 1444.3 88.3784C1442.84 88.5971 1443.13 88.9355 1441.77 90.0587ZM1451.94 126.418C1451.35 125.701 1445.81 119.496 1444.96 118.629C1430.95 104.441 1430.29 100.909 1425.67 104.734C1416.64 112.2 1334 185.088 1333.54 185.512C1328.46 190.171 1341 187.949 1344.7 203.163C1345.79 207.641 1346.29 207.758 1351.26 208.968C1357.67 210.526 1360.64 219.834 1363.12 217.812C1376.21 207.128 1374.15 205.318 1452.97 136.995C1458.06 132.587 1456.13 131.502 1451.94 126.418ZM1338.15 209.128C1337.11 204.832 1337.19 199.005 1330.66 194.555C1326.19 191.51 1325.13 194.217 1315.9 211.992C1311.53 220.399 1308.17 223.779 1310.85 226.088C1318.53 232.699 1320.57 238.848 1321.78 239.399C1323.55 240.205 1323.77 239.783 1344.18 229.796C1352.98 225.492 1357.84 224.729 1351.82 217.572C1348.4 213.502 1341.49 219.343 1338.15 209.127V209.128Z" fill="#CD3C52"/>
<path fill-rule="evenodd" clip-rule="evenodd" d="M1405.26 31.3081C1411.91 41.9292 1415.33 44.4487 1404.38 51.8228C1376.28 70.7542 1373.85 68.9312 1371.58 67.2291C1370.44 66.3734 1353.37 41.7052 1353.02 37.4406C1352.8 34.6978 1352.54 31.4442 1381.21 13.9492C1392.31 7.17839 1393.22 12.8266 1399.95 23.1682C1401.64 25.755 1401.62 25.6751 1403.24 28.2131C1405.07 31.0914 1405.1 31.059 1405.26 31.3087V31.3081Z" fill="#CD3C52"/>
<path fill-rule="evenodd" clip-rule="evenodd" d="M1350.59 386.07C1322.21 358.663 1320.7 359.067 1321.04 356.218C1321.8 349.742 1330.43 358.766 1338.96 366.688C1343.2 370.618 1372.52 397.828 1391.31 416.295C1396.15 421.042 1391.08 424.33 1387.48 420.762C1382.81 416.13 1353.5 388.968 1350.59 386.07Z" fill="#CD3C52"/>
<path fill-rule="evenodd" clip-rule="evenodd" d="M1360.25 357.055C1331.87 329.649 1330.35 330.052 1330.69 327.203C1331.46 320.727 1340.08 329.752 1348.62 337.673C1352.85 341.603 1382.17 368.813 1400.97 387.28C1405.8 392.028 1400.74 395.315 1397.14 391.748C1392.46 387.115 1363.15 359.954 1360.25 357.055Z" fill="#CD3C52"/>
<path fill-rule="evenodd" clip-rule="evenodd" d="M1367.93 328.066C1339.55 300.659 1338.04 301.063 1338.37 298.214C1339.14 291.738 1347.77 300.762 1356.3 308.684C1360.54 312.614 1389.86 339.824 1408.65 358.291C1413.48 363.038 1408.42 366.326 1404.82 362.758C1400.14 358.126 1370.83 330.965 1367.93 328.066V328.066Z" fill="#CD3C52"/>
<path d="M1224 117.968L1256.66 43.0933L1275.57 45.8284L1285.68 126.889L1277.12 125.652L1274.4 104.783L1241.08 99.9638L1232.55 119.205L1224 117.968ZM1262.11 51.4738L1244.12 92.4663L1273.61 96.7318L1267.97 52.3204L1262.11 51.4738Z" fill="#CD3C52"/>
<path d="M1137.55 202.927C1136.62 203.176 1135.77 203.141 1135.01 202.823C1134.28 202.443 1133.79 201.814 1133.56 200.936L1119.76 149.463C1119.54 148.633 1119.63 147.878 1120.02 147.197C1120.42 146.516 1121.03 146.064 1121.86 145.841L1139.67 141.068C1142.61 140.282 1145.42 140.209 1148.1 140.85C1150.82 141.429 1153.16 142.608 1155.1 144.389C1157.09 146.157 1158.47 148.457 1159.23 151.288C1159.93 153.924 1159.85 156.457 1158.99 158.887C1158.12 161.317 1156.68 163.376 1154.67 165.066C1158.18 165.067 1161.26 166.019 1163.92 167.923C1166.57 169.778 1168.38 172.56 1169.38 176.27C1170.27 179.589 1170.3 182.721 1169.46 185.665C1168.63 188.609 1167.06 191.174 1164.76 193.358C1162.5 195.481 1159.66 197.001 1156.24 197.918L1137.55 202.927ZM1138.57 196.767L1154.77 192.426C1157.12 191.798 1159.07 190.777 1160.63 189.365C1162.19 187.953 1163.25 186.256 1163.82 184.272C1164.39 182.289 1164.36 180.125 1163.73 177.782C1163.15 175.586 1162.12 173.82 1160.66 172.484C1159.19 171.099 1157.44 170.21 1155.39 169.816C1153.33 169.373 1151.13 169.466 1148.79 170.094L1132.59 174.436L1138.57 196.767ZM1131.11 168.944L1146.07 164.937C1149 164.151 1151.2 162.673 1152.66 160.503C1154.12 158.333 1154.45 155.759 1153.66 152.781C1152.87 149.852 1151.32 147.887 1149.01 146.884C1146.7 145.882 1144.08 145.773 1141.15 146.559L1126.19 150.567L1131.11 168.944Z" fill="#CD3C52"/>
<path d="M1263.61 438.677C1254.44 438.677 1246.79 435.935 1240.66 430.453C1234.22 424.705 1231 417.123 1231 407.705C1231 398.73 1234.02 389.467 1240.06 379.917C1246.77 369.306 1254.33 364 1262.74 364C1267.12 364 1272.02 365.017 1277.43 367.051C1284.28 369.659 1287.7 372.843 1287.7 376.601C1287.7 378.281 1287.14 379.784 1286.02 381.111C1284.9 382.393 1283.52 383.034 1281.86 383.034C1280.56 383.034 1279.42 382.658 1278.44 381.906C1277.5 381.111 1276.58 380.337 1275.69 379.585C1273.05 377.507 1268.73 376.468 1262.74 376.468C1258.17 376.468 1253.66 380.492 1249.18 388.538C1245.11 395.922 1243.08 402.311 1243.08 407.705C1243.08 413.541 1245.09 418.139 1249.12 421.5C1252.87 424.639 1257.7 426.208 1263.61 426.208C1266.29 426.208 1269.16 425.501 1272.2 424.086L1279.98 419.974C1281.32 419.267 1282.29 418.913 1282.87 418.913C1284.52 418.913 1285.95 419.576 1287.16 420.903C1288.37 422.185 1288.97 423.666 1288.97 425.346C1288.97 428.574 1285.53 431.691 1278.64 434.697C1272.6 437.35 1267.59 438.677 1263.61 438.677Z" fill="#CD3C52"/>
<path d="M1225.59 304.271L1170.42 319.054L1185.2 263.883L1225.59 304.271Z" stroke="#CD3C52" stroke-width="6"/>
</g>
<defs>
<linearGradient id="paint0_linear_800_106606" x1="2160" y1="240" x2="1872" y2="-624" gradientUnits="userSpaceOnUse">
<stop stop-color="#611A24"/>
<stop offset="1" stop-color="#CD3C52"/>
</linearGradient>
<clipPath id="clip0_800_106606">
<rect width="1440" height="480" fill="white"/>
</clipPath>
</defs>
</svg>
