<svg width="375" height="680" viewBox="0 0 375 680" fill="none" xmlns="http://www.w3.org/2000/svg">
<g clip-path="url(#clip0_800_106614)">
<rect x="-1065" width="1440" height="680" fill="url(#paint0_linear_800_106614)"/>
<path d="M220.229 379.471C221.205 378.116 222.886 377.502 224.48 377.919C233.935 380.297 243.564 381.886 253.27 382.668C254.346 382.757 255.344 383.282 256.04 384.126C256.736 384.971 257.073 386.066 256.976 387.166C256.805 389.318 255.055 390.981 252.944 390.997C252.834 391.007 252.723 390.992 252.62 390.954C242.475 390.13 232.411 388.474 222.526 385.999C221.484 385.719 220.592 385.03 220.042 384.083C219.18 382.65 219.253 380.826 220.229 379.471ZM311.177 377.795C313.351 377.293 315.525 378.635 316.104 380.836C316.354 381.915 316.178 383.052 315.615 384C315.083 384.955 314.181 385.636 313.131 385.875C308.978 386.957 304.701 387.874 300.344 388.665C300.116 388.711 299.884 388.739 299.652 388.748C297.536 388.752 295.767 387.103 295.576 384.947C295.385 382.791 296.836 380.843 298.918 380.459C303.032 379.711 307.145 378.836 311.177 377.795ZM255.306 361.969H255.348C257.523 362.168 259.159 364.083 259.06 366.313C258.961 368.544 257.163 370.3 254.98 370.298C254.883 370.304 254.787 370.29 254.696 370.257C253.619 370.179 252.618 369.665 251.915 368.828C251.211 367.991 250.864 366.902 250.95 365.802C251.147 363.528 253.079 361.829 255.306 361.969ZM329.094 349.768C331.175 348.917 333.539 349.914 334.429 352.017C335.288 354.144 334.305 356.582 332.23 357.473C323.247 361.314 313.955 364.351 304.458 366.55C304.165 366.619 303.862 366.646 303.561 366.633C301.666 366.637 300.016 365.311 299.571 363.427C299.334 362.342 299.524 361.205 300.099 360.263C300.676 359.322 301.602 358.66 302.665 358.43C311.702 356.325 320.545 353.428 329.094 349.768ZM172.723 360.387C173.878 358.453 176.308 357.776 178.261 358.845C179.868 359.784 180.654 361.712 180.176 363.541C179.698 365.37 178.076 366.64 176.225 366.634C175.514 366.622 174.816 366.437 174.189 366.093C173.253 365.532 172.566 364.621 172.274 363.553C172.011 362.478 172.172 361.341 172.723 360.387ZM357.354 358.679C359.294 357.574 361.741 358.236 362.892 360.179C363.451 361.13 363.598 362.277 363.299 363.344C363.04 364.416 362.363 365.333 361.426 365.883C360.809 366.252 360.105 366.44 359.39 366.426C358.123 366.447 356.92 365.857 356.143 364.833C355.366 363.809 355.107 362.471 355.442 361.221C355.721 360.146 356.41 359.23 357.354 358.679ZM192.758 348.019C193.758 345.961 196.189 345.106 198.214 346.101C201.758 347.851 205.422 349.517 209.086 351.016C210.904 351.754 211.952 353.708 211.584 355.672C211.217 357.636 209.536 359.055 207.582 359.055C207.067 359.042 206.557 358.943 206.074 358.762C202.205 357.18 198.338 355.431 194.631 353.556C192.627 352.548 191.791 350.077 192.758 348.019ZM230.101 340.718C230.633 338.483 232.836 337.112 235.021 337.655C244.157 339.925 253.497 341.231 262.893 341.554C263.973 341.59 264.994 342.064 265.732 342.871C266.47 343.678 266.864 344.751 266.829 345.854C266.755 348.099 264.956 349.879 262.76 349.881L262.624 349.879C252.669 349.536 242.775 348.153 233.096 345.749C230.911 345.205 229.57 342.953 230.101 340.718ZM302.774 336.979C303.819 336.698 304.93 336.854 305.862 337.412C306.794 337.97 307.47 338.884 307.743 339.953C308.017 341.022 307.865 342.158 307.319 343.111C306.773 344.064 305.879 344.756 304.834 345.035C302.061 345.777 299.247 346.439 296.395 347.021C293.639 347.587 290.885 348.069 288.133 348.468C286.691 348.683 285.246 348.094 284.345 346.922C283.444 345.75 283.224 344.174 283.769 342.791C284.314 341.408 285.541 340.429 286.985 340.224C289.585 339.843 292.19 339.387 294.798 338.855C297.494 338.304 300.153 337.679 302.774 336.979ZM199.411 328.053C200.431 326.003 202.883 325.188 204.887 326.231C210.871 329.347 217.066 332.016 223.426 334.217C224.818 334.683 225.857 335.877 226.149 337.345C226.441 338.812 225.94 340.327 224.837 341.312C223.735 342.296 222.2 342.599 220.818 342.106C214.085 339.776 207.527 336.951 201.193 333.653C199.189 332.61 198.39 330.102 199.411 328.053ZM124.833 317.531C126.567 316.089 129.106 316.31 130.576 318.032C133.222 321.239 136.033 324.445 138.965 327.485C140.52 329.156 140.464 331.798 138.841 333.399C138.093 334.154 137.082 334.573 136.032 334.566C134.93 334.57 133.874 334.119 133.101 333.315C130.128 330.151 127.155 326.818 124.346 323.361C122.907 321.614 123.125 319.004 124.833 317.531ZM375.597 319.197C377.254 317.673 379.794 317.765 381.34 319.406C382.095 320.208 382.492 321.293 382.439 322.404C382.411 323.505 381.94 324.545 381.135 325.277C378.123 328.153 374.946 330.984 371.649 333.649C370.929 334.232 370.041 334.554 369.124 334.566C367.383 334.571 365.829 333.45 365.251 331.771C364.674 330.091 365.198 328.222 366.558 327.111C369.694 324.569 372.707 321.905 375.558 319.239L375.597 319.197ZM415.056 304.163C416.383 302.35 418.856 301.896 420.717 303.122C421.61 303.744 422.225 304.703 422.427 305.788C422.63 306.877 422.395 308.002 421.775 308.911C415.968 317.453 409.515 325.517 402.474 333.025C401.707 333.837 400.645 334.289 399.542 334.273C397.906 334.287 396.423 333.293 395.782 331.754C395.141 330.215 395.468 328.432 396.611 327.235C403.354 320.063 409.523 312.347 415.056 304.163ZM247.041 323.237C247.352 320.977 249.388 319.396 251.601 319.697C255.468 320.238 259.46 320.572 263.369 320.738C264.444 320.776 265.46 321.25 266.193 322.055C266.926 322.86 267.317 323.93 267.278 325.029C267.209 327.262 265.432 329.043 263.248 329.067H263.084C258.889 328.901 254.656 328.527 250.502 327.943C249.432 327.786 248.465 327.202 247.814 326.318C247.16 325.44 246.881 324.329 247.041 323.237ZM137.254 299.999C139.028 298.644 141.526 298.936 142.955 300.666C148.698 308.114 155.076 315.026 162.013 321.322C162.818 322.057 163.305 323.088 163.366 324.189C163.427 325.291 163.056 326.372 162.337 327.194C161.572 328.101 160.455 328.619 159.284 328.61C158.294 328.608 157.34 328.238 156.597 327.569C149.313 320.933 142.609 313.658 136.563 305.828C135.887 304.966 135.578 303.862 135.708 302.765C135.839 301.667 136.396 300.671 137.254 299.999ZM359.112 306.339C360.204 305.355 361.726 305.042 363.105 305.518C364.484 305.993 365.51 307.184 365.797 308.643C366.084 310.101 365.588 311.606 364.497 312.59C359.165 317.393 353.499 321.793 347.543 325.755C345.658 327.005 343.139 326.457 341.915 324.53C340.69 322.603 341.223 320.027 343.106 318.772C348.729 315.03 354.078 310.874 359.112 306.339ZM309.669 312.866C311.77 312.105 314.085 313.17 314.922 315.282C315.303 316.322 315.274 317.472 314.841 318.489C314.397 319.495 313.574 320.276 312.56 320.655C312.105 320.836 311.623 320.935 311.135 320.947C309.165 320.948 307.474 319.512 307.115 317.53C306.756 315.549 307.83 313.588 309.669 312.866ZM182.578 289.837C184.118 288.172 186.667 288.044 188.36 289.546C195.18 295.846 202.697 301.311 210.756 305.828C210.756 305.84 210.761 305.851 210.769 305.859C210.777 305.867 210.787 305.871 210.798 305.871C211.718 306.401 212.393 307.286 212.671 308.328C212.996 309.384 212.877 310.53 212.345 311.494C211.625 312.828 210.253 313.657 208.762 313.659C208.078 313.642 207.407 313.456 206.808 313.117C198.201 308.272 190.166 302.431 182.862 295.71C181.215 294.16 181.089 291.546 182.578 289.837ZM152.898 286.625C154.663 285.209 157.215 285.52 158.606 287.319C161.919 291.637 165.475 295.755 169.255 299.651C170.831 301.286 170.818 303.916 169.225 305.533C167.632 307.15 165.06 307.144 163.474 305.52C159.472 301.393 155.708 297.032 152.2 292.46C150.821 290.65 151.133 288.041 152.898 286.625ZM388.655 273.092C390.109 273.144 391.426 273.987 392.109 275.301C392.792 276.615 392.737 278.202 391.965 279.464C386.688 288.093 380.571 296.155 373.708 303.526C372.706 304.61 371.213 305.063 369.795 304.714C368.377 304.364 367.25 303.266 366.84 301.834C366.431 300.403 366.801 298.856 367.811 297.78C374.295 290.817 380.073 283.2 385.058 275.047C385.829 273.785 387.201 273.04 388.655 273.092ZM267.646 87.5586C326.12 87.5587 373.522 136.038 373.522 195.841C373.522 255.643 326.12 304.123 267.646 304.123C209.172 304.123 161.77 255.643 161.77 195.841C161.836 136.066 209.2 87.6263 267.646 87.5586ZM338.991 296.292C340.796 294.971 343.296 295.318 344.691 297.085C346.024 298.92 345.681 301.509 343.917 302.915C343.209 303.484 342.333 303.791 341.432 303.789C340.26 303.768 339.151 303.24 338.382 302.334C337.614 301.428 337.257 300.231 337.402 299.041C337.556 297.946 338.127 296.958 338.991 296.292ZM267.646 95.8887C213.67 95.8887 169.914 140.639 169.914 195.841C169.914 251.043 213.67 295.793 267.646 295.793C321.622 295.793 365.377 251.043 365.377 195.841C365.316 140.665 321.596 95.9519 267.646 95.8887ZM262.026 281.05C264.263 281.2 265.959 283.177 265.812 285.465C265.688 287.645 263.918 289.346 261.782 289.337H261.496C259.258 289.187 257.563 287.21 257.709 284.922C257.856 282.634 259.789 280.9 262.026 281.05ZM284.708 279.425C286.91 278.969 289.058 280.422 289.511 282.673C289.734 283.75 289.529 284.874 288.941 285.796C288.353 286.718 287.429 287.363 286.375 287.588C286.093 287.637 285.807 287.664 285.521 287.671C283.445 287.648 281.718 286.033 281.509 283.92C281.301 281.807 282.678 279.872 284.708 279.425ZM405.936 279.883C407.082 277.94 409.509 277.247 411.473 278.301C413.423 279.433 414.115 281.962 413.021 283.964C412.737 284.464 412.492 284.922 412.248 285.381C411.515 286.673 410.164 287.467 408.704 287.464C407.992 287.451 407.294 287.265 406.667 286.921C404.744 285.766 404.075 283.25 405.163 281.258V281.217L405.405 280.841C405.568 280.55 405.731 280.216 405.894 279.926C405.894 279.914 405.898 279.903 405.906 279.895C405.914 279.886 405.925 279.883 405.936 279.883ZM90.4253 248.023C92.5781 247.434 94.8027 248.683 95.4731 250.856C98.1491 260.424 101.61 269.744 105.817 278.718C106.257 279.729 106.315 280.872 105.98 281.925C105.609 282.961 104.845 283.802 103.862 284.257C103.32 284.54 102.719 284.683 102.111 284.672C100.543 284.675 99.1136 283.75 98.4458 282.299C94.0736 272.915 90.4643 263.178 87.6548 253.188C87.333 252.128 87.447 250.979 87.9692 250.005C88.4915 249.031 89.3778 248.316 90.4253 248.023ZM234.58 278.883C235.333 276.709 237.667 275.572 239.792 276.343C241.918 277.114 243.029 279.5 242.276 281.674C241.677 283.329 240.132 284.428 238.407 284.424C237.95 284.436 237.494 284.365 237.062 284.214C234.937 283.443 233.826 281.056 234.58 278.883ZM308.158 271.179C309.611 271.247 310.919 272.105 311.584 273.429C312.222 274.716 312.166 276.248 311.438 277.483C310.709 278.719 309.41 279.484 308 279.509C306.479 279.5 305.086 278.636 304.376 277.26C303.7 275.942 303.764 274.354 304.545 273.099C305.326 271.843 306.704 271.111 308.158 271.179ZM213.942 266.688C215.233 264.817 217.76 264.367 219.593 265.683C220.476 266.315 221.077 267.282 221.26 268.368C221.444 269.455 221.195 270.571 220.571 271.47C219.825 272.578 218.589 273.234 217.273 273.219C216.43 273.215 215.608 272.955 214.911 272.471C213.085 271.146 212.651 268.56 213.942 266.688ZM129.773 237.192C131.931 236.546 134.193 237.811 134.826 240.018C137.47 249.242 141.027 258.167 145.443 266.652C146.128 267.965 146.077 269.552 145.307 270.815C144.537 272.078 143.167 272.825 141.712 272.774C140.258 272.724 138.941 271.883 138.257 270.569C133.579 261.583 129.81 252.131 127.011 242.36C126.379 240.153 127.615 237.839 129.773 237.192ZM251.316 266.932C251.683 264.76 253.642 263.256 255.784 263.503C257.925 263.75 259.507 265.662 259.392 267.863C259.277 270.064 257.503 271.792 255.348 271.804C255.117 271.81 254.885 271.797 254.656 271.763C252.438 271.357 250.951 269.205 251.316 266.932ZM279.635 263.478C281.771 263.229 283.727 264.725 284.097 266.891C284.462 269.149 282.997 271.293 280.798 271.72C280.555 271.755 280.31 271.77 280.065 271.763C277.916 271.747 276.15 270.022 276.036 267.827C275.922 265.632 277.5 263.726 279.635 263.478ZM439.939 250.48C440.602 248.301 442.834 247.05 444.988 247.649C446.029 247.937 446.912 248.645 447.434 249.61C447.956 250.576 448.073 251.716 447.757 252.771C446.576 257.06 445.232 261.309 443.725 265.474C443.15 267.129 441.614 268.231 439.897 268.223C439.425 268.221 438.957 268.136 438.513 267.973C437.503 267.61 436.681 266.844 436.233 265.85C435.755 264.848 435.695 263.69 436.07 262.643C437.495 258.685 438.798 254.604 439.939 250.48ZM380.851 234.447C381.515 232.269 383.756 231.03 385.901 231.655C386.881 231.918 387.712 232.575 388.208 233.472L388.398 233.837C388.847 234.761 388.932 235.83 388.629 236.82C385.83 246.457 381.935 255.724 377.023 264.432C376.308 265.72 374.97 266.516 373.521 266.515C372.807 266.528 372.103 266.341 371.486 265.974C370.544 265.423 369.856 264.511 369.573 263.44C369.29 262.37 369.436 261.228 369.978 260.268C374.568 252.121 378.217 243.455 380.851 234.447ZM324.65 258.223C326.285 256.654 328.853 256.73 330.396 258.395C331.941 260.076 331.868 262.718 330.233 264.308C329.44 265.065 328.384 265.469 327.299 265.43C326.215 265.39 325.19 264.912 324.451 264.099C322.925 262.418 323.015 259.792 324.65 258.223ZM114.206 256.103C116.317 255.35 118.636 256.409 119.499 258.519C120.284 260.668 119.231 263.064 117.138 263.891C116.67 264.075 116.173 264.174 115.671 264.182C114.015 264.144 112.534 263.118 111.885 261.559V261.476C111.483 260.455 111.513 259.308 111.967 258.311C112.393 257.297 113.2 256.501 114.206 256.103ZM230.005 255.386C231.609 254.432 233.64 254.702 234.952 256.043C236.264 257.384 236.528 259.46 235.597 261.101C234.88 262.387 233.544 263.182 232.096 263.184C230.241 263.2 228.607 261.937 228.117 260.107C227.626 258.278 228.402 256.339 230.005 255.386ZM301.281 255.354C302.207 254.79 303.315 254.631 304.357 254.913C305.399 255.195 306.286 255.894 306.818 256.853C307.367 257.807 307.522 258.946 307.247 260.018C306.972 261.089 306.29 262.003 305.353 262.559C303.393 263.685 300.912 263 299.773 261.018C298.665 259.027 299.339 256.496 301.281 255.354ZM401.196 237.478C401.792 235.26 404.034 233.956 406.203 234.565L406.403 234.628C408.448 235.319 409.626 237.538 409.049 239.687C407.539 245.293 405.711 250.806 403.576 256.196C402.731 258.328 400.357 259.356 398.273 258.492C396.189 257.629 395.183 255.2 396.028 253.068C398.044 247.978 399.77 242.772 401.196 237.478ZM224.454 151.668C241.923 133.802 268.196 128.457 291.021 138.126C313.846 147.795 328.728 170.574 328.728 195.841C328.69 230.326 301.365 258.271 267.646 258.311C242.94 258.311 220.667 243.091 211.212 219.747C201.758 196.404 206.984 169.534 224.454 151.668ZM156.67 248.474C158.324 248.401 159.856 249.358 160.546 250.896C160.994 251.908 161.039 253.059 160.67 254.104C160.079 255.74 158.548 256.822 156.842 256.811C155.257 256.798 153.818 255.86 153.136 254.396C152.69 253.399 152.646 252.261 153.013 251.23C153.571 249.637 155.017 248.547 156.67 248.474ZM198.02 248.718C199.721 247.862 201.775 248.317 202.978 249.815C204.389 251.602 204.136 254.216 202.41 255.686C201.673 256.299 200.753 256.638 199.803 256.644C197.908 256.634 196.267 255.293 195.842 253.403C195.417 251.514 196.319 249.573 198.02 248.718ZM267.646 141.7C238.409 141.7 214.708 165.94 214.708 195.841C214.708 225.742 238.409 249.981 267.646 249.981C296.869 249.948 320.551 225.728 320.583 195.841C320.583 165.94 296.883 141.7 267.646 141.7ZM210.472 239.57C212.213 238.105 214.778 238.325 216.254 240.068L216.212 240.11C216.92 240.942 217.268 242.033 217.176 243.132C217.084 244.23 216.56 245.244 215.725 245.941C214.911 246.665 213.845 247.021 212.77 246.927C211.695 246.832 210.704 246.296 210.023 245.44H209.983C208.552 243.675 208.77 241.063 210.472 239.57ZM319.117 239.984C320.575 238.243 323.131 238.026 324.85 239.498C326.569 240.97 326.808 243.584 325.387 245.357C324.595 246.281 323.453 246.812 322.251 246.815C321.298 246.836 320.37 246.494 319.647 245.857C318.812 245.151 318.289 244.131 318.197 243.026C318.105 241.922 318.451 240.825 319.158 239.984H319.117ZM341.532 238.284C343.137 237.889 344.817 238.523 345.786 239.891C346.754 241.258 346.821 243.088 345.954 244.525C345.207 245.772 343.879 246.53 342.45 246.524C341.715 246.517 340.996 246.301 340.375 245.9C338.962 245.025 338.206 243.365 338.459 241.696C338.713 240.028 339.926 238.68 341.532 238.284ZM424.342 226.575C424.724 224.317 426.813 222.793 429.025 223.161C430.098 223.307 431.061 223.913 431.671 224.827C432.309 225.712 432.574 226.821 432.405 227.907C431.713 232.155 430.857 236.363 429.88 240.485C429.531 241.928 428.455 243.071 427.059 243.483C425.662 243.896 424.156 243.515 423.109 242.484C422.061 241.454 421.631 239.929 421.98 238.486C422.875 234.655 423.69 230.657 424.342 226.616V226.575ZM185.752 227.867C187.811 226.947 190.21 227.894 191.129 229.99C191.563 231.006 191.583 232.157 191.186 233.188C190.789 234.22 190.007 235.047 189.012 235.488C188.499 235.717 187.943 235.83 187.383 235.82C185.762 235.816 184.294 234.838 183.635 233.323C183.206 232.313 183.188 231.169 183.585 230.145C183.983 229.121 184.763 228.301 185.752 227.867ZM125.084 203.688C126.163 203.627 127.221 204.006 128.026 204.743C128.831 205.48 129.315 206.514 129.375 207.617C129.742 214.389 130.58 221.125 131.88 227.775C132.335 230.047 130.939 232.275 128.731 232.802C128.443 232.862 128.15 232.893 127.856 232.894C125.975 232.926 124.337 231.588 123.953 229.705C123.95 229.683 123.895 229.408 123.891 229.39C122.516 222.358 121.631 215.236 121.243 208.076C121.183 206.973 121.555 205.891 122.275 205.068C122.995 204.246 124.006 203.749 125.084 203.688ZM199.752 216.859C201.756 216.364 203.806 217.478 204.527 219.454C205.293 221.616 204.223 224.006 202.123 224.826C201.665 224.99 201.184 225.075 200.7 225.077C198.638 225.072 196.905 223.492 196.664 221.397C196.422 219.303 197.748 217.355 199.752 216.859ZM333.934 216.645C335.372 216.388 336.835 216.937 337.769 218.084C338.703 219.231 338.966 220.801 338.458 222.201C337.861 223.833 336.335 224.913 334.631 224.91C334.16 224.908 333.691 224.824 333.248 224.66C332.228 224.29 331.396 223.517 330.937 222.516C330.478 221.514 330.43 220.366 330.803 219.328C331.302 217.925 332.496 216.901 333.934 216.645ZM350.975 215.934C352.389 215.56 353.891 215.992 354.908 217.064C355.924 218.137 356.299 219.686 355.889 221.12C355.405 222.919 353.804 224.164 351.98 224.16C351.607 224.167 351.235 224.11 350.88 223.993C349.843 223.696 348.964 222.989 348.437 222.028C347.91 221.067 347.778 219.931 348.071 218.871C348.452 217.429 349.561 216.307 350.975 215.934ZM104.717 194.757C105.801 194.746 106.843 195.18 107.609 195.964C108.375 196.747 108.8 197.813 108.79 198.921V199.839C108.79 203.627 108.952 207.418 109.197 211.125C109.342 213.414 107.646 215.39 105.409 215.54C105.318 215.573 105.221 215.587 105.125 215.58C102.992 215.563 101.224 213.882 101.052 211.708C100.808 207.668 100.645 203.67 100.645 199.839V198.881C100.669 196.598 102.485 194.759 104.717 194.757ZM180.53 204.069C182.692 203.861 184.633 205.426 184.94 207.625H184.98C185.271 209.91 183.709 212.01 181.478 212.333C181.29 212.368 181.099 212.382 180.908 212.374C178.736 212.372 176.948 210.624 176.847 208.405C176.746 206.187 178.368 204.278 180.53 204.069ZM145.968 187.719C147.052 187.784 148.065 188.294 148.778 189.132C149.49 189.97 149.843 191.067 149.756 192.174C149.593 194.756 149.511 197.381 149.511 200.046C149.511 201.337 149.554 202.753 149.593 204.254C149.645 206.547 147.886 208.458 145.644 208.542H145.521C143.322 208.535 141.522 206.75 141.449 204.502C141.409 203.087 141.367 201.628 141.367 200.046C141.367 197.213 141.449 194.383 141.654 191.593C141.801 189.305 143.731 187.572 145.968 187.719ZM84.3784 196.235C86.6274 196.224 88.4592 198.08 88.4702 200.38C88.4772 201.868 87.7078 203.246 86.4517 203.996C85.1953 204.746 83.6429 204.754 82.3794 204.017C81.116 203.279 80.3328 201.908 80.3257 200.42C80.3149 198.12 82.1295 196.247 84.3784 196.235ZM448.001 196.298C449.157 195.09 450.914 194.719 452.443 195.359C453.972 196 454.97 197.524 454.965 199.214C454.972 199.353 454.958 199.494 454.923 199.629C454.96 199.736 454.975 199.85 454.965 199.963V200.005C454.965 202.305 453.142 204.17 450.893 204.17C448.644 204.17 446.821 202.305 446.821 200.005V199.172C446.81 198.089 447.237 197.048 448.001 196.298ZM196.383 191.843C197.46 191.829 198.497 192.258 199.262 193.032C200.028 193.807 200.457 194.864 200.455 195.965C200.451 198.27 198.637 200.144 196.383 200.172C194.134 200.172 192.311 198.307 192.311 196.007C192.311 193.707 194.134 191.843 196.383 191.843ZM355.197 191.3C356.278 191.296 357.316 191.734 358.081 192.516C358.845 193.297 359.273 194.359 359.269 195.465V195.841C359.269 198.141 357.446 200.006 355.197 200.006C352.948 200.006 351.126 198.141 351.125 195.841V195.507C351.113 194.395 351.536 193.324 352.301 192.533C353.066 191.743 354.109 191.299 355.197 191.3ZM338.888 191.363C341.137 191.352 342.97 193.207 342.981 195.507V195.841C342.981 198.141 341.158 200.005 338.909 200.005C336.66 200.005 334.837 198.141 334.836 195.841V195.548C334.825 193.248 336.639 191.375 338.888 191.363ZM406.501 166.816C408.706 166.365 410.852 167.827 411.293 170.082L411.388 170.556C412.786 177.697 413.681 184.933 414.065 192.205C414.122 193.308 413.749 194.389 413.027 195.211C412.305 196.032 411.294 196.526 410.215 196.585C410.142 196.589 410.068 196.591 409.995 196.591C407.831 196.589 406.047 194.858 405.932 192.648C405.571 185.791 404.728 178.969 403.411 172.235L403.308 171.717C402.867 169.462 404.296 167.268 406.501 166.816ZM387.204 173.85C389.41 173.489 391.499 174.981 391.928 177.224C392.66 181.431 393.189 185.761 393.515 190.009C393.606 191.114 393.261 192.211 392.558 193.056C391.855 193.9 390.851 194.423 389.769 194.507H389.485C387.359 194.509 385.587 192.842 385.413 190.676C385.126 186.761 384.597 182.72 383.905 178.682C383.712 177.593 383.953 176.471 384.572 175.564C385.191 174.658 386.138 174.04 387.204 173.85ZM176.835 183.304C177.122 181.098 179.055 179.514 181.222 179.709C183.39 179.904 185.023 181.809 184.928 184.032C184.833 186.255 183.044 188.009 180.868 188.01C180.69 188.017 180.513 188.003 180.338 187.969C178.114 187.666 176.547 185.58 176.835 183.304ZM428.497 173.35C430.723 173.039 432.774 174.633 433.078 176.91C433.381 179.187 431.822 181.285 429.596 181.596C429.408 181.631 429.216 181.646 429.025 181.639C427.003 181.622 425.293 180.103 424.993 178.058C424.69 175.768 426.258 173.661 428.497 173.35ZM350.757 167.311C352.928 166.678 355.188 167.964 355.807 170.184C356.426 172.403 355.169 174.716 352.999 175.349C352.639 175.445 352.27 175.501 351.899 175.516C350.069 175.509 348.461 174.272 347.948 172.476C347.329 170.256 348.587 167.943 350.757 167.311ZM196.791 169.644C197.555 167.482 199.888 166.364 202.001 167.146C204.115 167.927 205.21 170.314 204.446 172.476C203.865 174.126 202.333 175.226 200.618 175.225C200.145 175.226 199.676 175.142 199.232 174.975C197.119 174.192 196.026 171.805 196.791 169.644ZM333.323 166.659C335.383 166.004 337.606 167.111 338.358 169.205C339.134 171.367 338.05 173.764 335.936 174.558C335.492 174.721 335.023 174.806 334.55 174.808C332.574 174.813 330.879 173.368 330.528 171.379C330.177 169.39 331.271 167.43 333.125 166.729L333.323 166.659ZM131.612 144.064C132.452 141.931 134.824 140.898 136.911 141.757C138.997 142.616 140.007 145.042 139.167 147.176C137.16 152.271 135.444 157.482 134.028 162.781C133.544 164.591 131.936 165.848 130.101 165.851C129.738 165.85 129.375 165.8 129.025 165.702C126.855 165.095 125.577 162.804 126.169 160.585C127.671 154.976 129.488 149.459 131.612 144.064ZM183.514 158.69C184.334 156.797 186.393 155.811 188.34 156.38C190.287 156.949 191.526 158.899 191.245 160.949C190.963 163 189.245 164.525 187.22 164.522C186.675 164.512 186.136 164.398 185.631 164.188C184.636 163.748 183.854 162.921 183.457 161.89C183.059 160.858 183.08 159.706 183.514 158.69ZM393.451 126.995C394.907 127.045 396.227 127.887 396.912 129.202C401.605 138.179 405.39 147.623 408.208 157.387C408.619 158.814 408.256 160.357 407.253 161.436C406.251 162.514 404.762 162.963 403.348 162.614C401.934 162.266 400.809 161.172 400.397 159.745C397.736 150.526 394.161 141.608 389.729 133.131C389.039 131.818 389.087 130.228 389.855 128.962C390.623 127.696 391.995 126.946 393.451 126.995ZM117.75 124.748C118.773 122.718 121.179 121.873 123.206 122.832C125.223 123.851 126.059 126.343 125.079 128.414C120.977 136.921 117.624 145.786 115.061 154.901C114.527 156.676 112.928 157.889 111.113 157.898C110.742 157.884 110.373 157.829 110.013 157.732C108.976 157.415 108.1 156.698 107.569 155.733C107.043 154.77 106.911 153.632 107.202 152.569C109.943 143.008 113.471 133.7 117.75 124.748ZM209.399 147.022C210.383 145.255 212.466 144.468 214.337 145.155C216.209 145.843 217.326 147.806 216.985 149.81C216.644 151.813 214.944 153.276 212.956 153.276C212.001 153.296 211.073 152.956 210.349 152.319C208.816 151.025 208.415 148.79 209.399 147.022ZM339 146.57C339.967 145.207 341.643 144.575 343.245 144.97C344.846 145.364 346.057 146.709 346.311 148.373C346.565 150.037 345.812 151.694 344.405 152.569C343.77 152.977 343.036 153.193 342.287 153.193C340.872 153.186 339.563 152.43 338.828 151.194C337.964 149.76 338.032 147.934 339 146.57ZM91.4019 134.91C92.2039 132.761 94.5315 131.655 96.6548 132.413C98.752 133.213 99.838 135.582 99.0981 137.742C97.6725 141.657 96.4101 145.781 95.229 149.903C94.7429 151.701 93.1431 152.945 91.3198 152.943C90.9485 152.929 90.5797 152.872 90.2202 152.776C88.057 152.135 86.803 149.831 87.4106 147.613C88.5916 143.365 89.9364 139.075 91.4019 134.91ZM319.443 145.614C321.163 144.131 323.734 144.355 325.184 146.114C326.634 147.874 326.416 150.502 324.696 151.985C323.965 152.61 323.041 152.95 322.088 152.943C320.885 152.948 319.74 152.416 318.953 151.485C317.503 149.726 317.723 147.097 319.443 145.614ZM168.284 120.333C169.693 118.574 172.206 118.262 173.986 119.626C174.843 120.298 175.399 121.295 175.53 122.392C175.66 123.489 175.352 124.593 174.677 125.456C169.031 132.881 164.235 140.944 160.383 149.486C159.712 150.959 158.268 151.901 156.679 151.902C156.09 151.899 155.507 151.77 154.967 151.527C153.984 151.072 153.221 150.232 152.851 149.195C152.482 148.151 152.527 147 152.973 145.988C157.1 136.866 162.237 128.257 168.284 120.333ZM431.264 115.378C433.291 114.449 435.675 115.31 436.68 117.336C441.051 126.73 444.686 136.464 447.552 146.446C447.844 147.51 447.713 148.648 447.187 149.612C446.697 150.594 445.824 151.32 444.785 151.611C444.414 151.725 444.029 151.781 443.643 151.778C441.833 151.779 440.24 150.556 439.734 148.778C437.017 139.219 433.545 129.901 429.351 120.917C428.878 119.931 428.804 118.794 429.146 117.753C429.503 116.697 430.269 115.838 431.264 115.378ZM198.129 135.596C199.498 135.067 201.039 135.33 202.165 136.284C203.002 136.976 203.535 137.982 203.642 139.077C203.749 140.173 203.423 141.267 202.736 142.114C201.985 143.103 200.824 143.674 199.6 143.656C198.666 143.671 197.756 143.347 197.033 142.741C195.889 141.809 195.322 140.32 195.549 138.842C195.776 137.364 196.761 136.125 198.129 135.596ZM229.815 129.206C230.741 128.644 231.85 128.487 232.891 128.769C233.932 129.05 234.819 129.747 235.353 130.704C235.902 131.659 236.056 132.798 235.781 133.869C235.506 134.94 234.824 135.854 233.887 136.41C233.266 136.768 232.564 136.954 231.851 136.951C230.409 136.968 229.07 136.188 228.348 134.91C227.8 133.956 227.646 132.816 227.921 131.745C228.197 130.675 228.878 129.761 229.815 129.206ZM299.529 130.538C300.642 128.556 303.115 127.871 305.054 129.007C306.994 130.143 307.667 132.671 306.558 134.656C305.449 136.641 302.978 137.333 301.036 136.201C299.101 135.055 298.429 132.529 299.529 130.538ZM368.513 127.959C370.313 127.21 372.38 127.872 373.441 129.537L373.55 129.719C374.627 131.618 374.074 134.068 372.259 135.286C371.609 135.73 370.843 135.962 370.061 135.951C368.118 135.96 366.441 134.558 366.063 132.608C365.685 130.659 366.713 128.708 368.513 127.959ZM324.208 127.372C325.73 125.69 328.294 125.579 329.949 127.123C331.594 128.702 331.685 131.344 330.152 133.037C328.605 134.675 326.068 134.766 324.412 133.244C322.778 131.676 322.687 129.054 324.208 127.372ZM398.81 101.052C400.663 99.786 403.164 100.246 404.469 102.093C410.057 110.255 414.922 118.91 419.007 127.955C419.95 130.037 419.079 132.508 417.053 133.495C416.514 133.738 415.932 133.865 415.343 133.869C413.755 133.868 412.311 132.926 411.637 131.455C407.73 122.855 403.097 114.619 397.792 106.841C397.181 105.928 396.933 104.811 397.1 103.718C397.302 102.633 397.917 101.673 398.81 101.052ZM254.369 120.002C255.433 119.805 256.531 120.05 257.417 120.683C258.304 121.315 258.907 122.284 259.093 123.373C259.459 125.632 257.994 127.778 255.794 128.205C255.552 128.241 255.306 128.255 255.061 128.248C253.098 128.246 251.418 126.808 251.071 124.832C250.867 123.742 251.102 122.615 251.723 121.705C252.344 120.796 253.298 120.181 254.369 120.002ZM275.79 123.29C276.158 121.119 278.118 119.618 280.258 119.866C282.399 120.115 283.98 122.026 283.864 124.227C283.748 126.427 281.975 128.154 279.821 128.165C279.589 128.173 279.357 128.159 279.128 128.122C276.904 127.727 275.411 125.566 275.79 123.29ZM161.4 96.6836C162.948 95.0158 165.525 94.9477 167.156 96.5312C168.786 98.1148 168.854 100.75 167.305 102.418C160.835 109.395 155.07 117.022 150.098 125.184C149.329 126.446 147.959 127.194 146.505 127.144C145.051 127.093 143.734 126.253 143.049 124.94C142.365 123.628 142.417 122.042 143.186 120.779C148.448 112.141 154.551 104.067 161.4 96.6836ZM214.625 119.418C216.458 118.105 218.984 118.556 220.274 120.426C221.564 122.296 221.132 124.88 219.308 126.206C218.641 126.725 217.825 127.003 216.988 126.997C215.665 126.995 214.423 126.344 213.648 125.248C212.352 123.36 212.788 120.756 214.625 119.418ZM306.404 112.212C307.429 111.868 308.547 111.958 309.506 112.464H309.548C311.536 113.533 312.316 116.036 311.298 118.084C310.602 119.473 309.2 120.343 307.673 120.333C307.021 120.345 306.377 120.188 305.8 119.876C304.845 119.374 304.123 118.504 303.794 117.457C303.466 116.41 303.558 115.273 304.05 114.296C304.53 113.307 305.378 112.556 306.404 112.212ZM236.697 107.632C238.064 107.126 239.592 107.405 240.704 108.363C241.816 109.322 242.343 110.814 242.087 112.278C241.832 113.742 240.832 114.955 239.464 115.461C238.444 115.841 237.318 115.786 236.338 115.309C235.358 114.831 234.606 113.971 234.252 112.922C233.879 111.89 233.929 110.747 234.388 109.752C234.848 108.757 235.68 107.992 236.697 107.632ZM365.877 94.293C367.468 92.6729 370.041 92.675 371.629 94.2979C375.639 98.4161 379.411 102.769 382.927 107.335C383.837 108.503 384.066 110.081 383.527 111.469C382.988 112.857 381.763 113.843 380.317 114.054C378.871 114.264 377.426 113.667 376.529 112.488C373.208 108.177 369.645 104.065 365.859 100.175C364.279 98.5441 364.287 95.913 365.877 94.293ZM283.905 104.139C285.285 103.667 286.807 103.985 287.897 104.972C288.986 105.958 289.478 107.465 289.187 108.923C288.782 110.851 287.125 112.234 285.197 112.254C284.923 112.249 284.65 112.222 284.381 112.171C283.32 111.956 282.386 111.316 281.79 110.393C281.193 109.47 280.982 108.341 281.205 107.258C281.495 105.799 282.525 104.61 283.905 104.139ZM261.119 102.384C263.351 102.228 265.287 103.949 265.448 106.231C265.608 108.515 263.932 110.5 261.7 110.672H261.414C259.269 110.684 257.485 108.987 257.342 106.798C257.198 104.514 258.886 102.54 261.119 102.384ZM306.899 81.6025C307.737 79.4902 310.052 78.4257 312.153 79.1865L313.872 79.8643C322.439 83.3142 330.616 87.7096 338.256 92.9727C339.154 93.5897 339.776 94.5475 339.982 95.6338C340.188 96.7201 339.962 97.8457 339.355 98.7617C338.757 99.6743 337.828 100.306 336.774 100.517C335.72 100.728 334.626 100.501 333.736 99.8857C326.094 94.6531 317.898 90.3224 309.303 86.9756C307.19 86.1699 306.114 83.765 306.899 81.6025ZM132.57 67.2764C134.147 65.6805 136.67 65.6253 138.313 67.1504C139.078 67.9251 139.529 68.9666 139.576 70.0664C139.602 71.1814 139.191 72.2609 138.436 73.0654C131.692 80.2382 125.523 87.954 119.988 96.1377C119.387 97.0608 118.446 97.6967 117.38 97.9004C116.314 98.1041 115.213 97.8585 114.327 97.2197C112.496 95.8999 112.042 93.3201 113.309 91.4307C119.078 82.8585 125.52 74.7803 132.57 67.2764ZM187.521 74.4043C189.404 73.1549 191.921 73.6991 193.148 75.6211C194.375 77.543 193.85 80.118 191.975 81.3789C186.358 85.1306 181.016 89.2965 175.991 93.8428C174.306 95.3666 171.732 95.2051 170.242 93.4824C168.752 91.7593 168.91 89.1278 170.594 87.6035C175.916 82.7897 181.573 78.3785 187.521 74.4043ZM207.946 86.5674C209.584 86.3762 211.174 87.2112 211.977 88.6836C212.499 89.6486 212.632 90.7844 212.345 91.8477C212.034 92.9076 211.333 93.8031 210.39 94.3467C209.791 94.6848 209.12 94.8705 208.436 94.8877C206.945 94.8872 205.571 94.0572 204.851 92.7217L204.757 92.5391C204.311 91.6159 204.212 90.554 204.485 89.5576C204.943 87.9382 206.308 86.7587 207.946 86.5674ZM146.172 82.8105C147.743 81.1893 150.277 81.0988 151.955 82.6035C152.719 83.3778 153.17 84.4184 153.217 85.5176C153.24 86.6041 152.861 87.6593 152.158 88.4736C152.118 88.4736 152.118 88.4741 152.118 88.5166C151.344 89.3482 150.268 89.8153 149.145 89.8076C148.115 89.8094 147.124 89.4074 146.375 88.6836C145.581 87.9361 145.112 86.8936 145.074 85.79C145.036 84.6866 145.431 83.6135 146.172 82.8105ZM396.163 66.3594C397.778 64.7801 400.333 64.8169 401.904 66.4424C405 69.6491 407.93 72.9826 410.7 76.3135C411.387 77.1636 411.723 78.2541 411.636 79.3535C411.571 80.4605 411.053 81.4887 410.21 82.1865C409.48 82.817 408.559 83.1696 407.604 83.1846C406.392 83.1906 405.241 82.6403 404.468 81.6855C401.822 78.4789 399.012 75.3151 396.082 72.2324C395.31 71.4559 394.895 70.3816 394.94 69.2754C394.936 68.1725 395.379 67.117 396.163 66.3594ZM266.872 70.8574C269.118 70.8647 270.937 72.7254 270.944 75.0225C270.947 76.1166 270.522 77.1668 269.763 77.9385C269.022 78.7387 267.99 79.1901 266.912 79.1865C263.042 79.2292 259.052 79.4367 255.143 79.8535C254.996 79.8854 254.846 79.8994 254.696 79.8945C253.132 79.8806 251.712 78.9566 251.037 77.5137C250.362 76.0707 250.549 74.3606 251.52 73.1064C252.188 72.2431 253.175 71.7002 254.248 71.6074C258.401 71.1499 262.637 70.9001 266.872 70.8574ZM357.639 61.1123C358.962 59.2612 361.474 58.8024 363.341 60.0713C366.761 62.5277 370.142 65.1106 373.317 67.7764C374.162 68.4592 374.693 69.4691 374.785 70.5664C374.912 71.7369 374.544 72.9078 373.774 73.7832C373.004 74.6584 371.904 75.1552 370.752 75.1484C369.817 75.1699 368.905 74.8441 368.187 74.2314C365.133 71.6916 361.916 69.2328 358.657 66.9023C356.831 65.5792 356.378 63.0032 357.639 61.1123ZM310.221 58.6377C311.315 57.6526 312.839 57.34 314.219 57.8184C320.957 60.1352 327.522 62.9491 333.862 66.2373C335.164 66.9078 336.016 68.2389 336.096 69.7275C336.176 71.2164 335.472 72.6357 334.25 73.4482C333.027 74.2607 331.473 74.3434 330.175 73.6641C324.188 70.5598 317.989 67.9023 311.626 65.7129C310.244 65.2422 309.212 64.0513 308.922 62.5908C308.632 61.1304 309.128 59.6229 310.221 58.6377ZM246.895 51.582C249.119 51.262 251.178 52.8373 251.505 55.1094C251.659 56.2026 251.383 57.3139 250.736 58.1982C250.089 59.0826 249.125 59.6678 248.056 59.8252C245.539 60.1972 243.017 60.6407 240.491 61.1553C237.717 61.7247 234.977 62.3735 232.272 63.1016C230.098 63.6819 227.876 62.3529 227.304 60.1309C226.733 57.9087 228.029 55.6332 230.201 55.0449C233.058 54.2762 235.956 53.5912 238.894 52.9893C241.564 52.4423 244.231 51.9732 246.895 51.582ZM272.402 50.124C282.356 50.4466 292.251 51.8121 301.933 54.1992C304.119 54.7384 305.464 56.9876 304.937 59.2236C304.41 61.4597 302.21 62.835 300.024 62.2959C290.885 60.0428 281.543 58.7543 272.147 58.4492C270.688 58.4097 269.361 57.5739 268.669 56.2598C267.978 54.9456 268.027 53.3533 268.797 52.0859C269.568 50.8185 270.943 50.0702 272.402 50.124ZM196.585 45.4521C198.623 44.5444 201 45.4217 202.001 47.4512C202.467 48.4498 202.523 49.5979 202.156 50.6387C201.789 51.6794 201.029 52.5268 200.047 52.9912C196.546 54.6994 193.003 56.5743 189.459 58.5732C188.855 58.9353 188.166 59.1223 187.465 59.1143C185.994 59.1193 184.635 58.3042 183.921 56.9883C182.826 54.9869 183.517 52.4559 185.468 51.3252C189.133 49.2429 192.879 47.2436 196.585 45.4521ZM313.539 40.0801C314.22 37.9011 316.494 36.6923 318.629 37.373C320.544 37.9889 321.732 39.942 321.427 41.9707C321.122 43.9995 319.414 45.4968 317.407 45.4951C316.98 45.5035 316.555 45.4469 316.144 45.3281C315.123 44.973 314.276 44.2269 313.782 43.2461C313.278 42.27 313.19 41.1246 313.539 40.0801ZM173.537 34.333C174.962 33.5032 176.734 33.6242 178.039 34.6406C179.343 35.6571 179.927 37.3726 179.523 38.998C179.232 40.0669 178.546 40.9782 177.609 41.5381H177.569C176.964 41.9013 176.274 42.0885 175.573 42.0791C174.135 42.0792 172.804 41.3035 172.071 40.0391C171.509 39.0876 171.348 37.944 171.625 36.8691C171.901 35.7943 172.59 34.8795 173.537 34.333ZM355.197 35.291C356.353 33.3341 358.812 32.6543 360.775 33.749C362.355 34.6964 363.122 36.6085 362.646 38.418C362.17 40.2272 360.571 41.4877 358.739 41.4971C358.025 41.5103 357.32 41.3231 356.703 40.9561C354.761 39.8136 354.088 37.2812 355.197 35.291ZM268.582 29.2109H269.395C271.639 29.2457 273.437 31.1218 273.426 33.417C273.415 35.7121 271.599 37.5706 269.355 37.583C268.784 37.5403 268.295 37.54 267.808 37.54C259.034 37.5355 250.274 38.2879 241.624 39.7891C241.408 39.8246 241.189 39.8392 240.971 39.832C238.969 39.8383 237.26 38.3537 236.941 36.332C236.778 35.2525 237.026 34.1496 237.633 33.251C238.268 32.3555 239.216 31.7438 240.28 31.543C249.63 29.9329 259.1 29.153 268.582 29.2109ZM234.538 11.4268C235.602 11.2262 236.702 11.4706 237.589 12.1045C238.477 12.7384 239.08 13.7095 239.262 14.8008C239.46 15.8763 239.225 16.9881 238.61 17.8838C238.01 18.797 237.067 19.4149 236.005 19.5898C231.891 20.3402 227.779 21.2557 223.789 22.2969C223.455 22.3798 223.113 22.4221 222.77 22.4229C220.896 22.429 219.262 21.1194 218.82 19.2568C218.573 18.1954 218.733 17.0773 219.267 16.1328C219.823 15.1729 220.733 14.4819 221.792 14.2168C225.906 13.135 230.181 12.2177 234.538 11.4268ZM282.264 9.01172C292.41 9.8062 302.475 11.45 312.358 13.9268C313.413 14.1753 314.324 14.8522 314.881 15.8018C315.452 16.7477 315.614 17.893 315.331 18.9658C315.076 20.0401 314.412 20.9661 313.487 21.5371C312.561 22.108 311.451 22.2766 310.403 22.0059C300.957 19.6625 291.343 18.0885 281.654 17.2998C280.582 17.2301 279.583 16.7199 278.884 15.8848C277.809 14.6097 277.59 12.7981 278.33 11.2939C279.069 9.78977 280.622 8.88922 282.264 9.01172Z" fill="#CD3C52" fill-opacity="0.41"/>
</g>
<defs>
<linearGradient id="paint0_linear_800_106614" x1="1095" y1="340" x2="569.877" y2="-772.025" gradientUnits="userSpaceOnUse">
<stop stop-color="#611A24"/>
<stop offset="1" stop-color="#CD3C52"/>
</linearGradient>
<clipPath id="clip0_800_106614">
<rect width="375" height="680" fill="white"/>
</clipPath>
</defs>
</svg>
