<svg viewBox="0 0 32 32" xmlns="http://www.w3.org/2000/svg">
  <path
        d="M3.234,32l-2.97,0c1.368,-7.448 7.893,-13.091 15.736,-13.091c7.843,0 14.368,5.643 15.736,13.091l-2.97,0c-1.322,-5.83 -6.536,-10.182 -12.766,-10.182c-6.23,0 -11.444,4.352 -12.766,10.182Zm12.766,-14.545c4.82,0 8.727,-3.908 8.727,-8.728c0,-4.82 -3.907,-8.727 -8.727,-8.727c-4.82,0 -8.727,3.907 -8.727,8.727c0,4.82 3.907,8.728 8.727,8.728Zm0,-2.91c-3.213,0 -5.818,-2.604 -5.818,-5.818c0,-3.213 2.605,-5.818 5.818,-5.818c3.213,0 5.818,2.605 5.818,5.818c0,3.214 -2.605,5.818 -5.818,5.818Z"
  />
</svg>
