<svg viewBox="0 0 32 32" xmlns="http://www.w3.org/2000/svg">
  <path
    d="M0.787,17.887l11.589,11.625c0.248,0.254 0.588,0.397 0.943,0.397c0.354,0 0.694,-0.143 0.942,-0.397c0.516,-0.517 0.516,-1.367 0,-1.884l-10.257,-10.292l26.663,0c0.731,0 1.333,-0.602 1.333,-1.333c0,-0.732 -0.602,-1.333 -1.333,-1.333l-26.663,0l10.292,-10.292c0.247,-0.251 0.385,-0.59 0.385,-0.942c0,-0.738 -0.607,-1.345 -1.345,-1.345c-0.361,0 -0.707,0.145 -0.96,0.403l-11.589,11.625c-0.503,0.497 -0.787,1.176 -0.787,1.884c0,0.707 0.284,1.386 0.787,1.884Z"/>
</svg>
