<svg viewBox="0 0 32 32" xmlns="http://www.w3.org/2000/svg">
  <path
    d="M29,4l-26,0c-1.657,0 -3,1.343 -3,3l0,18c0,1.657 1.343,3 3,3l26,0c1.657,0 3,-1.343 3,-3l0,-18c0,-1.657 -1.343,-3 -3,-3Zm0,3l0,2.55c-1.401,1.141 -3.636,2.916 -8.412,6.656c-1.052,0.828 -3.137,2.817 -4.588,2.794c-1.45,0.023 -3.536,-1.966 -4.588,-2.794c-4.776,-3.739 -7.01,-5.514 -8.412,-6.656l0,-2.55l26,0Zm-26,18l0,-11.6c1.432,1.141 3.463,2.741 6.559,5.165c1.366,1.076 3.758,3.449 6.441,3.435c2.67,0.014 5.032,-2.325 6.441,-3.434c3.095,-2.424 5.127,-4.025 6.559,-5.166l0,11.6l-26,0Z"/>
</svg>
