<svg viewBox="0 0 32 32" xmlns="http://www.w3.org/2000/svg">
  <path
    d="M0,14.4l0,13.6c0,0.442 0.358,0.8 0.8,0.8l4,0l0,-16l-3.2,0c-0.883,0 -1.6,0.716 -1.6,1.6Zm18,-2.4l-1.2,0l0,-2c0,-0.221 -0.179,-0.4 -0.4,-0.4l-0.8,0c-0.221,0 -0.4,0.179 -0.4,0.4l0,3.2c0,0.221 0.179,0.4 0.4,0.4l2.4,0c0.221,0 0.4,-0.179 0.4,-0.4l0,-0.8c0,-0.221 -0.179,-0.4 -0.4,-0.4Zm6.888,-3.198l-8,-5.334c-0.537,-0.357 -1.239,-0.357 -1.775,0l-8,5.334c-0.445,0.296 -0.713,0.796 -0.713,1.331l0,18.667l6.4,0l0,-7.2c0,-0.442 0.358,-0.8 0.8,-0.8l4.8,0c0.442,0 0.8,0.358 0.8,0.8l0,7.2l6.4,0l0,-18.667c0,-0.535 -0.268,-1.035 -0.712,-1.331Zm-8.888,7.198c-2.209,0 -4,-1.791 -4,-4c0,-2.209 1.791,-4 4,-4c2.209,0 4,1.791 4,4c0,2.209 -1.791,4 -4,4Zm14.4,-3.2l-3.2,0l0,16l4,0c0.442,0 0.8,-0.358 0.8,-0.8l0,-13.6c0,-0.884 -0.716,-1.6 -1.6,-1.6Z"/>
</svg>
