<svg viewBox="0 0 32 32" xmlns="http://www.w3.org/2000/svg"><path d="M31.2,25.6l-4,0l0,-16.728c0,-1.363 -1.076,-2.472 -2.4,-2.472l-5.6,0l0,3.2l4.8,0l0,19.2l7.2,0c0.442,0 0.8,-0.358 0.8,-0.8l0,-1.6c0,-0.442 -0.358,-0.8 -0.8,-0.8Zm-15.588,-22.35l-9.6,2.487c-0.712,0.185 -1.212,0.848 -1.212,1.609l0,18.254l-4,0c-0.442,0 -0.8,0.358 -0.8,0.8l0,1.6c0,0.442 0.358,0.8 0.8,0.8l16.8,0l0,-23.941c0,-1.079 -0.978,-1.871 -1.988,-1.609Zm-2.412,14.35c-0.663,0 -1.2,-0.717 -1.2,-1.6c0,-0.884 0.537,-1.6 1.2,-1.6c0.662,0 1.2,0.716 1.2,1.6c0,0.883 -0.538,1.6 -1.2,1.6Z" /></svg>
