<svg viewBox="0 0 32 32" xmlns="http://www.w3.org/2000/svg">
  <path
    d="M20.491,1.123l0,2.807c0,0.62 -0.502,1.123 -1.123,1.123l-17.964,0c-0.621,0 -1.123,-0.503 -1.123,-1.123l0,-2.807c0,-0.62 0.502,-1.123 1.123,-1.123l17.964,0c0.621,0 1.123,0.503 1.123,1.123Zm-20.21,8.982l0,2.807c0,0.62 0.502,1.123 1.123,1.123l29.192,0c0.621,0 1.123,-0.503 1.123,-1.123l0,-2.807c0,-0.62 -0.502,-1.123 -1.123,-1.123l-29.192,0c-0.621,0 -1.123,0.503 -1.123,1.123Zm1.123,21.895l29.192,0c0.621,0 1.123,-0.503 1.123,-1.123l0,-2.807c0,-0.62 -0.502,-1.123 -1.123,-1.123l-29.192,0c-0.621,0 -1.123,0.503 -1.123,1.123l0,2.807c0,0.62 0.502,1.123 1.123,1.123Zm17.964,-14.035l-17.964,0c-0.621,0 -1.123,0.503 -1.123,1.123l0,2.807c0,0.62 0.502,1.123 1.123,1.123l17.964,0c0.621,0 1.123,-0.503 1.123,-1.123l0,-2.807c0,-0.62 -0.502,-1.123 -1.123,-1.123Z"/>
</svg>
