<svg viewBox="0 0 32 32" xmlns="http://www.w3.org/2000/svg">
  <path
    d="M16,26.676c1.469,0 2.662,1.192 2.662,2.662c0,1.469 -1.193,2.662 -2.662,2.662c-1.469,0 -2.662,-1.193 -2.662,-2.662c0,-1.47 1.193,-2.662 2.662,-2.662Zm0,-13.329c1.469,0 2.662,1.193 2.662,2.662c0,1.469 -1.193,2.662 -2.662,2.662c-1.469,0 -2.662,-1.193 -2.662,-2.662c0,-1.469 1.193,-2.662 2.662,-2.662Zm0,-13.347c1.469,0 2.662,1.193 2.662,2.662c0,1.47 -1.193,2.662 -2.662,2.662c-1.469,0 -2.662,-1.192 -2.662,-2.662c0,-1.469 1.193,-2.662 2.662,-2.662Z"/>
</svg>
