<svg viewBox="0 0 32 32" xmlns="http://www.w3.org/2000/svg">
  <path
    d="M27,4l-3,0l0,-3.25c0,-0.412 -0.337,-0.75 -0.75,-0.75l-2.5,0c-0.413,0 -0.75,0.338 -0.75,0.75l0,3.25l-8,0l0,-3.25c0,-0.412 -0.338,-0.75 -0.75,-0.75l-2.5,0c-0.412,0 -0.75,0.338 -0.75,0.75l0,3.25l-3,0c-1.656,0 -3,1.344 -3,3l0,22c0,1.656 1.344,3 3,3l22,0c1.656,0 3,-1.344 3,-3l0,-22c0,-1.656 -1.344,-3 -3,-3Zm-0.375,25l-21.25,0c-0.206,0 -0.375,-0.169 -0.375,-0.375l0,-18.625l22,0l0,18.625c0,0.206 -0.169,0.375 -0.375,0.375Z"/>
</svg>
