<svg viewBox="0 0 32 32" xmlns="http://www.w3.org/2000/svg">
  <path
    d="M25.168,0c1.685,0 3.056,1.372 3.056,3.056l0,16.807c0,1.686 -1.371,3.056 -3.056,3.056l-3.719,0l-5.449,9.081l-5.449,-9.081l-3.719,0c-1.685,0 -3.056,-1.37 -3.056,-3.056l0,-16.807c0,-1.684 1.371,-3.056 3.056,-3.056l18.336,0Zm0,19.863l0,-16.807l-18.336,0l0,16.807l5.449,0l3.719,6.199l3.719,-6.199l5.449,0Zm-4.586,-13.751l3.058,6.112l0,3.056l-1.528,0c0,0.845 -0.683,1.528 -1.528,1.528c-0.845,0 -1.528,-0.683 -1.528,-1.528l-6.112,0c0,0.845 -0.683,1.528 -1.528,1.528c-0.845,0 -1.528,-0.683 -1.528,-1.528l-1.528,0l0,-3.056l3.056,-6.112l9.166,0Zm0.002,7.64l0,-1.528l-3.056,0l0,1.528l3.056,0Zm-6.112,0l0,-1.528l-3.056,0l0,1.528l3.056,0Zm6.112,-3.056l-1.528,-3.056l-6.112,0l-1.528,3.056l9.168,0Z"/>
</svg>
