<svg viewBox="0 0 32 32" xmlns="http://www.w3.org/2000/svg">
  <path
    d="M22.42,0l6.671,6.671l0,22.42c0,1.606 -1.305,2.909 -2.909,2.909l-20.364,0c-1.604,0 -2.909,-1.303 -2.909,-2.909l0,-26.182c0,-1.604 1.305,-2.909 2.909,-2.909l16.602,0Zm3.763,29.091l-0.001,-20.364l-5.818,0l0,-5.818l-14.546,0l0,26.182l20.365,0Zm-13.092,-2.909l8.727,0l-4.363,-7.273l-4.364,7.273Zm-4.364,-10.182l5.818,0l0,2.909l-5.818,0l0,-2.909Zm12.364,-1.455c1.204,0 2.182,0.978 2.182,2.182c0,1.204 -0.978,2.182 -2.182,2.182c-1.204,0 -2.182,-0.978 -2.182,-2.182c0,-1.204 0.978,-2.182 2.182,-2.182Zm-12.364,-2.909l8.728,0l0,2.909l-8.728,0l0,-2.909Zm0,-4.363l7.273,0l0,2.909l-7.273,0l0,-2.909Z"/>
</svg>
