<svg width="68" height="68" viewBox="0 0 68 68" fill="none" xmlns="http://www.w3.org/2000/svg">
<path fill-rule="evenodd" clip-rule="evenodd" d="M27.4116 34.4379C27.4314 33.9036 27.5762 30.0226 29.263 28.0199C35.838 20.2142 44.0703 28.8435 47.8394 26.5092C52.1025 23.8688 46.8591 20.1999 44.8102 17.1546C39.681 9.53099 49.9035 6.04812 50.3629 10.7584C50.5647 12.8276 49.1642 13.561 49.0325 13.7654C48.3289 14.8575 58.3887 21.2654 52.9953 29.1739C47.589 37.1008 38.5926 30.3583 35.633 31.1669C30.8664 32.4691 35.0324 38.463 35.7418 39.565C43.8011 52.0895 34.2393 58.8618 29.1747 58.9002C19.8794 58.9706 14.6181 52.8594 18.5642 50.4433C20.5111 49.2514 27.3989 55.8643 31.6653 51.5453C36.133 47.0227 28.092 42.3627 27.4116 34.4379Z" fill="#8A2433"/>
<path fill-rule="evenodd" clip-rule="evenodd" d="M15.1507 31.1613C14.9 31.0923 14.6347 31.0853 14.3839 31.0163C4.82548 28.39 4.19051 17.1847 9.75789 12.186C23.071 0.232553 32.6984 21.541 22.2423 28.964C18.2649 31.7876 15.2806 31.1591 15.1507 31.1613ZM21.7249 19.3655C19.766 9.8008 11.8216 15.8107 11.4335 19.3549C10.5808 27.1403 21.5357 28.242 21.7249 19.3655Z" fill="#8A2433"/>
<path fill-rule="evenodd" clip-rule="evenodd" d="M59.4426 43.7357C61.5825 47.5752 62.6827 48.4859 59.1601 51.1516C50.1163 57.9952 49.3345 57.3362 48.6042 56.7209C48.2372 56.4115 42.7434 47.4942 42.6323 45.9526C42.5609 44.9611 42.4762 43.7849 51.7031 37.4606C55.2744 35.0131 55.5686 37.0548 57.7345 40.7932C58.2763 41.7284 58.2723 41.6995 58.7921 42.6169C59.3817 43.6574 59.3918 43.6457 59.4426 43.736V43.7357Z" fill="#8A2433"/>
</svg>
