<svg width="68" height="68" viewBox="0 0 68 68" fill="none" xmlns="http://www.w3.org/2000/svg">
<g clip-path="url(#clip0_528_9510)">
<path fill-rule="evenodd" clip-rule="evenodd" d="M9.81725 45.9115C10.36 43.7341 10.442 43.4053 16.9091 18.7706C19.7414 7.98194 19.5847 7.95793 19.8766 7.03422C20.3333 5.58863 20.9597 6.36397 26.7481 8.08039C32.8129 9.87882 49.5855 15.1766 50.4457 15.353C51.6979 15.6099 50.0662 16.7858 49.9628 16.8603C48.8482 17.6637 43.6325 21.7269 43.2439 21.9881C42.5781 22.4357 41.3603 18.9956 40.5882 19.0153C39.1418 19.0523 41.1859 21.3827 41.7843 22.5135C42.0825 23.0772 41.835 23.1781 38.9584 25.2906C38.041 25.9643 38.0437 25.2897 37.4295 24.3551C36.8544 23.48 36.3978 22.4113 35.837 22.8569C35.3289 23.2604 35.6427 23.757 36.2632 24.7165C37.1162 26.0356 37.8011 26.3932 36.4843 27.2539C35.2419 28.0659 34.3929 28.8215 34.0509 29.0882C33.3271 29.6525 32.1405 25.9321 31.2292 26.1435C29.5767 26.5269 33.2984 29.5463 32.4839 30.2502C30.9845 31.5459 29.5786 32.4967 29.3138 32.6757C28.7604 33.0499 27.5278 29.8069 26.8666 29.8633C25.0555 30.0176 28.4476 33.0334 27.9536 33.6802C27.7145 33.9933 24.85 36.0704 24.7757 36.1166C23.9341 36.6394 23.0241 33.0799 22.0976 33.3503C20.6932 33.7603 24.2637 36.5719 23.136 37.383C20.3436 39.3913 20.4113 39.4691 20.1638 39.6362C19.5446 40.0544 18.2181 36.5564 17.5579 36.81C16.562 37.1924 17.5906 38.217 18.755 40.1305C19.0796 40.6641 18.5326 40.8887 15.9371 42.8211C11.2085 46.3416 9.25773 48.7167 9.8175 45.9118L9.81725 45.9115ZM24.4572 16.6255C24.2412 17.5341 22.8522 23.3749 21.6883 27.9681C21.677 28.0126 21.4987 28.7161 21.8124 28.5282C23.1154 27.7473 27.2939 24.3801 27.7591 24.0053C35.3973 17.8501 36.2793 17.7924 35.5924 17.3366C35.4994 17.2747 25.3898 14.2751 25.1785 14.4106C24.9475 14.5586 24.7682 15.3076 24.4574 16.6256L24.4572 16.6255Z" fill="#8A2433"/>
<path fill-rule="evenodd" clip-rule="evenodd" d="M47.1199 44.3859C49.0843 41.1052 49.7727 41.6725 53.3863 38.6591C55.9577 36.5148 55.4195 33.761 52.622 32.83C47.7811 31.2192 47.4056 38.0388 42.7816 35.3184C40.6032 34.0368 42.8323 30.3734 43.1951 29.9197C49.8235 21.6312 65.1117 27.9499 61.1466 38.5647C59.1489 43.9127 54.8553 45.0924 54.3751 45.351C52.7256 46.2387 52.6008 48.2883 52.0348 49.1862C51.5606 49.9383 43.6497 52.4062 47.1201 44.386L47.1199 44.3859Z" fill="#8A2433"/>
<path fill-rule="evenodd" clip-rule="evenodd" d="M51.0027 57.235C47.2433 64.0399 41.2705 56.0668 45.7894 52.9216C46.8232 52.202 51.9901 51.9301 51.0027 57.235Z" fill="#8A2433"/>
<path fill-rule="evenodd" clip-rule="evenodd" d="M31.9847 53.5205C25.0976 65.9868 14.1557 51.3804 22.4342 45.6185C24.3281 44.3003 33.7937 43.8023 31.9847 53.5205Z" fill="#8A2433"/>
</g>
<defs>
<clipPath id="clip0_528_9510">
<rect width="68" height="68" fill="white"/>
</clipPath>
</defs>
</svg>
