<svg viewBox="0 0 65 65" xmlns="http://www.w3.org/2000/svg">
  <path d="M23.646,31.575l7.702,0l0,-7.702l2.007,0l0,7.702l7.703,0l0,2.007l-7.703,0l0,7.702l-2.007,0l0,-7.702l-7.702,0l0,-2.007Z"/>
  <path d="M33.355,59.428l0,2.019l-2.007,0l0,-2.019l2.007,0Zm0,-5.095l0,2.018l-2.007,0l0,-2.018l2.007,0Zm0,-5.096l0,2.018l-2.007,0l0,-2.018l2.007,0Zm0,-5.096l0,2.018l-2.007,0l0,-2.018l2.007,0Zm12.858,-12.545l0,2.007l-2.019,0l0,-2.007l2.019,0Zm5.095,0l0,2.007l-2.018,0l0,-2.007l2.018,0Zm5.096,0l0,2.007l-2.018,0l0,-2.007l2.018,0Zm5.096,0l0,2.007l-2.018,0l0,-2.007l2.018,0Zm-55.982,0l0,2.007l-2.018,0l0,-2.007l2.018,0Zm5.096,0l0,2.007l-2.018,0l0,-2.007l2.018,0Zm5.096,0l0,2.007l-2.018,0l0,-2.007l2.018,0Zm5.096,0l0,2.007l-2.019,0l0,-2.007l2.019,0Zm12.549,-12.755l0,2.018l-2.007,0l0,-2.018l2.007,0Zm0,-5.096l0,2.018l-2.007,0l0,-2.018l2.007,0Zm0,-5.096l0,2.018l-2.007,0l0,-2.018l2.007,0Zm0,-5.096l0,2.019l-2.007,0l0,-2.019l2.007,0Z" style="fill-opacity:0.4;"/>
</svg>
