<svg width="375" height="680" viewBox="0 0 375 680" fill="none" xmlns="http://www.w3.org/2000/svg">
<g clip-path="url(#clip0_800_106613)">
<rect width="375" height="680" fill="url(#paint0_linear_800_106613)"/>
<path fill-rule="evenodd" clip-rule="evenodd" d="M460.806 135.03C456.691 160.835 450.264 158.715 385.786 217.451C356.097 244.495 329.655 266.001 273.992 318.908C262.197 330.119 203.806 352.993 181.664 363.925C172.578 368.412 163.635 372.084 162.754 365.738C162.286 362.366 208.487 271.123 215.637 264.069C217.39 262.339 381.577 111.011 406.194 99.8375C425.055 91.2761 460.706 96.7307 460.806 135.03ZM383.423 127.583C375.534 134.208 367.884 134.116 375.121 141.29C410.268 176.13 409.338 183.182 416.588 178.247C431.619 168.017 429.058 164.623 428.154 163.424C427.605 162.697 393.246 124.266 387.012 125.202C384.947 125.512 385.352 125.992 383.423 127.583ZM397.833 179.093C396.994 178.076 389.152 169.286 387.939 168.058C368.101 147.958 367.163 142.954 360.614 148.372C347.828 158.949 230.747 262.208 230.093 262.808C222.899 269.408 240.673 266.26 245.907 287.814C247.448 294.158 248.163 294.324 255.207 296.038C264.277 298.245 268.493 311.432 272.005 308.566C290.552 293.431 287.627 290.867 399.298 194.076C406.503 187.832 403.772 186.295 397.833 179.093ZM236.632 296.264C235.16 290.179 235.266 281.924 226.013 275.619C219.682 271.306 218.18 275.14 205.103 300.322C198.918 312.231 194.158 317.02 197.958 320.292C208.835 329.656 211.723 338.367 213.441 339.149C215.949 340.29 216.253 339.692 245.17 325.544C257.634 319.446 264.524 318.365 255.998 308.227C251.149 302.46 241.358 310.736 236.632 296.264V296.264Z" fill="#CD3C52"/>
<path fill-rule="evenodd" clip-rule="evenodd" d="M331.702 44.3528C341.123 59.3994 345.966 62.9686 330.459 73.4153C290.644 100.235 287.202 97.6522 283.987 95.2409C282.372 94.0287 258.186 59.082 257.697 53.0406C257.383 49.1549 257.009 44.5456 297.63 19.7611C313.352 10.1691 314.647 18.1707 324.183 32.8212C326.568 36.486 326.55 36.3727 328.839 39.9682C331.434 44.0458 331.478 43.9999 331.702 44.3538V44.3528Z" fill="#CD3C52"/>
<path fill-rule="evenodd" clip-rule="evenodd" d="M254.254 546.932C214.052 508.106 211.906 508.678 212.384 504.642C213.472 495.468 225.691 508.252 237.783 519.475C243.782 525.042 285.318 563.59 311.945 589.751C318.79 596.477 311.618 601.134 306.516 596.08C299.891 589.517 258.372 551.039 254.254 546.932Z" fill="#CD3C52"/>
<path fill-rule="evenodd" clip-rule="evenodd" d="M267.932 505.828C227.731 467.002 225.584 467.574 226.062 463.538C227.15 454.363 239.369 467.148 251.461 478.371C257.46 483.938 298.996 522.485 325.623 548.647C332.468 555.373 325.296 560.03 320.195 554.976C313.569 548.413 272.05 509.934 267.932 505.828Z" fill="#CD3C52"/>
<path fill-rule="evenodd" clip-rule="evenodd" d="M278.815 464.76C238.614 425.935 236.467 426.507 236.945 422.47C238.033 413.296 250.253 426.081 262.345 437.303C268.343 442.87 309.88 481.418 336.507 507.579C343.352 514.305 336.18 518.962 331.078 513.908C324.453 507.345 282.933 468.868 278.815 464.761V464.76Z" fill="#CD3C52"/>
<path d="M74.9167 167.121L121.189 61.0492L147.975 64.924L162.291 179.76L150.173 178.008L146.311 148.443L99.1163 141.616L87.0343 168.874L74.9167 167.121ZM128.912 72.9216L103.42 130.994L145.194 137.037L137.203 74.1209L128.912 72.9216Z" fill="#CD3C52"/>
<path d="M-47.5566 287.48C-48.8721 287.833 -50.0726 287.784 -51.158 287.333C-52.1927 286.795 -52.8768 285.904 -53.2103 284.659L-72.7491 211.74C-73.0641 210.564 -72.9426 209.494 -72.3848 208.529C-71.827 207.564 -70.9596 206.924 -69.7825 206.609L-44.5447 199.847C-40.3903 198.733 -36.4105 198.631 -32.6053 199.538C-28.7493 200.358 -25.4443 202.029 -22.6904 204.552C-19.8671 207.057 -17.9182 210.314 -16.8435 214.325C-15.843 218.059 -15.9575 221.648 -17.1873 225.09C-18.417 228.532 -20.4552 231.45 -23.3018 233.843C-18.3292 233.845 -13.9603 235.194 -10.195 237.891C-6.44831 240.519 -3.87084 244.461 -2.46264 249.716C-1.20268 254.418 -1.16416 258.855 -2.34708 263.026C-3.53 267.197 -5.74761 270.83 -8.99992 273.925C-12.2015 276.932 -16.2257 279.085 -21.0725 280.384L-47.5566 287.48ZM-46.1099 278.754L-23.157 272.604C-19.8335 271.714 -17.0668 270.268 -14.857 268.268C-12.6472 266.268 -11.1395 263.863 -10.334 261.053C-9.52849 258.243 -9.57042 255.178 -10.4598 251.859C-11.2936 248.747 -12.7433 246.245 -14.8087 244.353C-16.8928 242.391 -19.3824 241.131 -22.2778 240.573C-25.1917 239.946 -28.3104 240.077 -31.6339 240.968L-54.5868 247.118L-46.1099 278.754ZM-56.6713 239.338L-35.4841 233.661C-31.3297 232.548 -28.2173 230.454 -26.147 227.38C-24.0766 224.305 -23.6066 220.658 -24.7368 216.44C-25.8486 212.291 -28.0418 209.507 -31.3165 208.086C-34.5913 206.666 -38.3058 206.513 -42.4602 207.626L-63.6475 213.303L-56.6713 239.338Z" fill="#CD3C52"/>
<path d="M131.03 621.459C118.04 621.459 107.203 617.575 98.5215 609.809C89.3962 601.666 84.8335 590.924 84.8335 577.582C84.8335 564.867 89.111 551.745 97.666 538.216C107.172 523.183 117.881 515.667 129.795 515.667C136.005 515.667 142.944 517.108 150.612 519.989C160.308 523.684 165.155 528.194 165.155 533.518C165.155 535.898 164.363 538.028 162.779 539.907C161.195 541.723 159.23 542.632 156.886 542.632C155.048 542.632 153.432 542.099 152.038 541.034C150.707 539.907 149.408 538.811 148.14 537.746C144.402 534.802 138.286 533.33 129.795 533.33C123.331 533.33 116.931 539.03 110.594 550.43C104.827 560.89 101.943 569.941 101.943 577.582C101.943 585.85 104.795 592.365 110.498 597.125C115.822 601.572 122.666 603.796 131.03 603.796C134.833 603.796 138.888 602.793 143.198 600.789L154.224 594.964C156.125 593.962 157.488 593.461 158.311 593.461C160.656 593.461 162.684 594.4 164.395 596.279C166.106 598.096 166.961 600.194 166.961 602.574C166.961 607.147 162.082 611.562 152.323 615.822C143.768 619.58 136.67 621.459 131.03 621.459Z" fill="#CD3C52"/>
<path d="M77.1683 431.051L-0.990539 451.994L19.9521 373.835L77.1683 431.051Z" stroke="#CD3C52" stroke-width="8.5"/>
</g>
<defs>
<linearGradient id="paint0_linear_800_106613" x1="562.5" y1="340" x2="-12.6005" y2="22.849" gradientUnits="userSpaceOnUse">
<stop stop-color="#611A24"/>
<stop offset="1" stop-color="#CD3C52"/>
</linearGradient>
<clipPath id="clip0_800_106613">
<rect width="375" height="680" fill="white"/>
</clipPath>
</defs>
</svg>
