<svg width="1440" height="480" viewBox="0 0 1440 480" fill="none" xmlns="http://www.w3.org/2000/svg">
<g clip-path="url(#clip0_800_106612)">
<rect width="1440" height="480" fill="url(#paint0_linear_800_106612)"/>
<g clip-path="url(#clip1_800_106612)">
<path d="M1285.23 379.471C1286.2 378.116 1287.89 377.502 1289.48 377.919C1298.93 380.298 1308.56 381.886 1318.27 382.667C1319.35 382.756 1320.34 383.282 1321.04 384.126C1321.74 384.971 1322.07 386.066 1321.98 387.167C1321.8 389.319 1320.06 390.981 1317.94 390.998C1317.83 391.007 1317.72 390.992 1317.62 390.955C1307.47 390.131 1297.41 388.473 1287.53 385.999C1286.48 385.718 1285.59 385.03 1285.04 384.083C1284.18 382.651 1284.25 380.826 1285.23 379.471ZM1376.18 377.795C1378.35 377.294 1380.52 378.635 1381.1 380.835C1381.35 381.915 1381.18 383.052 1380.61 384C1380.08 384.955 1379.18 385.636 1378.13 385.875C1373.98 386.956 1369.7 387.874 1365.34 388.665C1365.12 388.711 1364.88 388.739 1364.65 388.749C1362.54 388.753 1360.77 387.103 1360.58 384.948C1360.38 382.792 1361.84 380.844 1363.92 380.459C1368.03 379.711 1372.14 378.837 1376.18 377.795ZM1320.31 361.969H1320.35C1322.52 362.169 1324.16 364.083 1324.06 366.313C1323.96 368.544 1322.16 370.3 1319.98 370.298C1319.88 370.305 1319.79 370.291 1319.7 370.257L1319.49 370.238C1318.5 370.114 1317.57 369.613 1316.91 368.829C1316.21 367.992 1315.86 366.902 1315.95 365.802C1316.15 363.529 1318.08 361.829 1320.31 361.969ZM1394.09 349.767C1396.17 348.917 1398.54 349.914 1399.43 352.016C1400.29 354.144 1399.31 356.582 1397.23 357.472C1388.25 361.314 1378.95 364.352 1369.46 366.55C1369.16 366.619 1368.86 366.647 1368.56 366.633C1366.67 366.637 1365.02 365.311 1364.57 363.426C1364.33 362.342 1364.52 361.205 1365.1 360.262C1365.68 359.321 1366.6 358.66 1367.66 358.43C1376.7 356.326 1385.54 353.427 1394.09 349.767ZM1237.72 360.386C1238.88 358.453 1241.31 357.777 1243.26 358.845C1244.87 359.784 1245.65 361.713 1245.18 363.542C1244.7 365.37 1243.08 366.64 1241.23 366.633C1240.51 366.622 1239.82 366.436 1239.19 366.092C1238.25 365.531 1237.57 364.621 1237.27 363.552C1237.01 362.478 1237.17 361.34 1237.72 360.386ZM1422.35 358.678C1424.29 357.573 1426.74 358.237 1427.89 360.179C1428.45 361.13 1428.6 362.276 1428.3 363.343C1428.04 364.416 1427.36 365.333 1426.43 365.883C1425.81 366.252 1425.1 366.44 1424.39 366.426C1423.12 366.447 1421.92 365.857 1421.14 364.833C1420.37 363.809 1420.11 362.47 1420.44 361.22C1420.72 360.145 1421.41 359.23 1422.35 358.678ZM1257.76 348.018C1258.76 345.961 1261.19 345.107 1263.21 346.101C1266.76 347.852 1270.42 349.517 1274.09 351.016C1275.9 351.754 1276.95 353.708 1276.58 355.671C1276.22 357.635 1274.54 359.055 1272.58 359.054C1272.07 359.042 1271.56 358.943 1271.07 358.761C1267.2 357.179 1263.34 355.431 1259.63 353.556C1257.63 352.549 1256.79 350.077 1257.76 348.018ZM1295.1 340.718C1295.63 338.483 1297.84 337.112 1300.02 337.656C1309.16 339.925 1318.5 341.232 1327.89 341.554C1328.97 341.591 1329.99 342.064 1330.73 342.871C1331.47 343.677 1331.86 344.751 1331.83 345.855C1331.76 348.099 1329.96 349.88 1327.76 349.881L1327.62 349.879C1317.67 349.537 1307.77 348.153 1298.1 345.75C1295.91 345.206 1294.57 342.953 1295.1 340.718ZM1367.77 336.979C1368.82 336.699 1369.93 336.855 1370.86 337.413C1371.79 337.971 1372.47 338.885 1372.74 339.954C1373.02 341.022 1372.86 342.158 1372.32 343.111C1371.77 344.064 1370.88 344.757 1369.83 345.036C1367.06 345.778 1364.25 346.44 1361.4 347.022C1358.64 347.587 1355.89 348.07 1353.13 348.468C1351.69 348.684 1350.25 348.093 1349.35 346.921C1348.44 345.749 1348.22 344.174 1348.77 342.792C1349.31 341.409 1350.54 340.43 1351.98 340.224C1354.59 339.844 1357.19 339.387 1359.8 338.855C1362.49 338.304 1365.15 337.679 1367.77 336.979ZM1264.41 328.053C1265.43 326.004 1267.88 325.188 1269.89 326.231C1275.87 329.346 1282.07 332.016 1288.43 334.217C1289.82 334.683 1290.86 335.877 1291.15 337.344C1291.44 338.811 1290.94 340.326 1289.84 341.311C1288.73 342.296 1287.2 342.6 1285.82 342.107C1279.09 339.777 1272.53 336.952 1266.19 333.654C1264.19 332.61 1263.39 330.103 1264.41 328.053ZM1189.83 317.532C1191.57 316.089 1194.11 316.31 1195.58 318.032C1198.22 321.238 1201.03 324.446 1203.96 327.486C1205.52 329.157 1205.46 331.797 1203.84 333.399C1203.09 334.153 1202.08 334.574 1201.03 334.567C1199.93 334.57 1198.87 334.119 1198.1 333.316C1195.13 330.152 1192.16 326.819 1189.35 323.362C1187.91 321.614 1188.13 319.004 1189.83 317.532ZM1440.6 319.197C1442.25 317.672 1444.79 317.765 1446.34 319.407C1447.09 320.208 1447.49 321.293 1447.44 322.404C1447.41 323.505 1446.94 324.546 1446.14 325.278C1443.12 328.153 1439.95 330.984 1436.65 333.65C1435.93 334.232 1435.04 334.555 1434.12 334.567C1432.38 334.572 1430.83 333.45 1430.25 331.771C1429.67 330.092 1430.2 328.223 1431.56 327.112C1434.69 324.57 1437.71 321.906 1440.56 319.24L1440.6 319.197ZM1480.06 304.164C1481.38 302.351 1483.86 301.896 1485.72 303.122C1486.61 303.743 1487.23 304.702 1487.43 305.788C1487.63 306.876 1487.39 308.003 1486.77 308.912C1480.97 317.454 1474.52 325.516 1467.47 333.025C1466.71 333.837 1465.65 334.289 1464.54 334.274C1462.91 334.287 1461.42 333.293 1460.78 331.754C1460.14 330.215 1460.47 328.433 1461.61 327.236C1468.35 320.064 1474.52 312.348 1480.06 304.164ZM1312.04 323.238C1312.35 320.977 1314.39 319.397 1316.6 319.698C1320.47 320.239 1324.46 320.572 1328.37 320.739C1329.44 320.777 1330.46 321.25 1331.19 322.055C1331.93 322.86 1332.32 323.93 1332.28 325.029C1332.21 327.262 1330.43 329.043 1328.25 329.068H1328.08C1323.89 328.901 1319.66 328.527 1315.5 327.944C1314.43 327.787 1313.46 327.202 1312.81 326.319C1312.16 325.441 1311.88 324.329 1312.04 323.238ZM1202.25 299.999C1204.03 298.643 1206.53 298.936 1207.95 300.666C1213.7 308.113 1220.08 315.027 1227.01 321.323C1227.82 322.057 1228.3 323.088 1228.37 324.19C1228.43 325.291 1228.06 326.372 1227.34 327.195C1226.57 328.102 1225.46 328.619 1224.28 328.61C1223.29 328.607 1222.34 328.237 1221.6 327.569C1214.31 320.933 1207.61 313.658 1201.56 305.829C1200.89 304.967 1200.58 303.862 1200.71 302.765C1200.84 301.668 1201.4 300.67 1202.25 299.999ZM1424.11 306.339C1425.2 305.356 1426.73 305.042 1428.11 305.517C1429.48 305.992 1430.51 307.184 1430.8 308.643C1431.08 310.102 1430.59 311.607 1429.5 312.59C1424.17 317.393 1418.5 321.793 1412.54 325.755C1410.66 327.005 1408.14 326.457 1406.91 324.531C1405.69 322.604 1406.22 320.026 1408.11 318.772C1413.73 315.03 1419.08 310.875 1424.11 306.339ZM1374.67 312.867C1376.77 312.106 1379.08 313.17 1379.92 315.283C1380.3 316.322 1380.27 317.472 1379.84 318.49C1379.4 319.496 1378.57 320.276 1377.56 320.655C1377.11 320.836 1376.62 320.935 1376.14 320.948C1374.16 320.949 1372.47 319.512 1372.11 317.531C1371.76 315.549 1372.83 313.588 1374.67 312.867ZM1247.58 289.837C1249.12 288.173 1251.67 288.044 1253.36 289.546C1260.18 295.847 1267.7 301.311 1275.76 305.829C1275.76 305.84 1275.76 305.851 1275.77 305.859C1275.78 305.867 1275.79 305.872 1275.8 305.872C1276.72 306.402 1277.39 307.286 1277.67 308.328C1278 309.384 1277.88 310.53 1277.35 311.494C1276.62 312.828 1275.25 313.658 1273.76 313.66C1273.08 313.642 1272.41 313.456 1271.81 313.117C1263.2 308.271 1255.17 302.43 1247.86 295.709C1246.22 294.16 1246.09 291.546 1247.58 289.837ZM1217.9 286.625C1219.66 285.209 1222.22 285.52 1223.61 287.32C1226.92 291.638 1230.48 295.755 1234.26 299.651C1235.83 301.285 1235.82 303.916 1234.23 305.533C1232.63 307.15 1230.06 307.144 1228.47 305.52C1224.47 301.393 1220.71 297.033 1217.2 292.46C1215.82 290.651 1216.13 288.042 1217.9 286.625ZM1453.65 273.092C1455.11 273.145 1456.43 273.986 1457.11 275.3C1457.79 276.615 1457.74 278.202 1456.97 279.464C1451.69 288.094 1445.57 296.155 1438.71 303.527C1437.71 304.611 1436.21 305.063 1434.8 304.713C1433.38 304.364 1432.25 303.266 1431.84 301.834C1431.43 300.403 1431.8 298.856 1432.81 297.78C1439.29 290.816 1445.07 283.2 1450.06 275.047C1450.83 273.785 1452.2 273.04 1453.65 273.092ZM1332.65 87.5591C1391.12 87.5592 1438.52 136.039 1438.52 195.841C1438.52 255.643 1391.12 304.122 1332.65 304.123C1274.17 304.123 1226.77 255.644 1226.77 195.841C1226.84 136.067 1274.2 87.6267 1332.65 87.5591ZM1403.99 296.292C1405.8 294.97 1408.3 295.318 1409.69 297.084C1411.02 298.92 1410.68 301.509 1408.92 302.915C1408.21 303.483 1407.33 303.792 1406.43 303.79C1405.26 303.769 1404.15 303.239 1403.38 302.333C1402.61 301.428 1402.26 300.232 1402.4 299.042C1402.56 297.947 1403.13 296.958 1403.99 296.292ZM1332.65 95.8882C1278.67 95.8882 1234.91 140.639 1234.91 195.841C1234.91 251.043 1278.67 295.793 1332.65 295.793C1386.62 295.793 1430.38 251.043 1430.38 195.841C1430.32 140.665 1386.6 95.9515 1332.65 95.8882ZM1327.03 281.05C1329.26 281.2 1330.96 283.176 1330.81 285.464C1330.69 287.645 1328.92 289.346 1326.78 289.336H1326.5C1324.26 289.186 1322.56 287.21 1322.71 284.922C1322.86 282.634 1324.79 280.901 1327.03 281.05ZM1349.71 279.425C1351.91 278.97 1354.06 280.422 1354.51 282.673C1354.73 283.75 1354.53 284.873 1353.94 285.795C1353.35 286.718 1352.43 287.363 1351.38 287.588C1351.09 287.637 1350.81 287.665 1350.52 287.671C1348.45 287.648 1346.72 286.033 1346.51 283.92C1346.3 281.808 1347.68 279.872 1349.71 279.425ZM1470.94 279.883C1472.08 277.941 1474.51 277.247 1476.47 278.3C1478.42 279.432 1479.11 281.963 1478.02 283.964C1477.74 284.465 1477.49 284.922 1477.25 285.381C1476.52 286.673 1475.16 287.467 1473.7 287.463C1472.99 287.451 1472.29 287.265 1471.67 286.92C1469.74 285.765 1469.08 283.25 1470.16 281.257V281.217L1470.4 280.84C1470.57 280.55 1470.73 280.216 1470.89 279.925C1470.89 279.914 1470.9 279.903 1470.91 279.895C1470.91 279.887 1470.92 279.883 1470.94 279.883ZM1155.43 248.024C1157.58 247.435 1159.8 248.682 1160.47 250.856C1163.15 260.424 1166.61 269.745 1170.82 278.718C1171.26 279.73 1171.32 280.872 1170.98 281.924C1170.61 282.961 1169.85 283.802 1168.86 284.257C1168.32 284.541 1167.72 284.684 1167.11 284.672C1165.54 284.676 1164.11 283.75 1163.45 282.298C1159.07 272.915 1155.46 263.179 1152.65 253.189C1152.33 252.128 1152.45 250.979 1152.97 250.005C1153.49 249.032 1154.38 248.317 1155.43 248.024ZM1299.58 278.882C1300.33 276.709 1302.67 275.572 1304.79 276.343C1306.92 277.114 1308.03 279.501 1307.28 281.674C1306.68 283.33 1305.13 284.427 1303.41 284.423C1302.95 284.436 1302.49 284.365 1302.06 284.214C1299.94 283.443 1298.83 281.056 1299.58 278.882ZM1373.16 271.179C1374.61 271.247 1375.92 272.105 1376.58 273.428C1377.22 274.716 1377.17 276.248 1376.44 277.484C1375.71 278.719 1374.41 279.484 1373 279.508C1371.48 279.5 1370.09 278.636 1369.38 277.26C1368.7 275.943 1368.76 274.355 1369.55 273.099C1370.33 271.843 1371.7 271.111 1373.16 271.179ZM1278.94 266.688C1280.23 264.817 1282.76 264.367 1284.59 265.682C1285.48 266.314 1286.08 267.281 1286.26 268.368C1286.44 269.454 1286.2 270.571 1285.57 271.47C1284.83 272.579 1283.59 273.235 1282.27 273.219C1281.43 273.215 1280.61 272.954 1279.91 272.47C1278.08 271.145 1277.65 268.559 1278.94 266.688ZM1194.77 237.193C1196.93 236.546 1199.19 237.81 1199.83 240.017C1202.47 249.242 1206.03 258.167 1210.44 266.653C1211.13 267.966 1211.08 269.553 1210.31 270.816C1209.54 272.079 1208.17 272.826 1206.71 272.775C1205.26 272.724 1203.94 271.883 1203.26 270.569C1198.58 261.582 1194.81 252.13 1192.01 242.36C1191.38 240.153 1192.62 237.84 1194.77 237.193ZM1316.31 266.931C1316.68 264.759 1318.64 263.256 1320.78 263.503C1322.93 263.751 1324.51 265.663 1324.39 267.864C1324.28 270.065 1322.5 271.793 1320.35 271.804C1320.12 271.811 1319.88 271.797 1319.66 271.763C1317.44 271.357 1315.95 269.205 1316.31 266.931ZM1344.64 263.478C1346.77 263.23 1348.73 264.726 1349.1 266.891C1349.46 269.15 1348 271.293 1345.8 271.72C1345.56 271.756 1345.31 271.77 1345.06 271.763C1342.92 271.747 1341.15 270.022 1341.04 267.827C1340.92 265.632 1342.5 263.726 1344.64 263.478ZM1504.94 250.48C1505.6 248.301 1507.83 247.049 1509.99 247.649C1511.03 247.937 1511.91 248.645 1512.43 249.61C1512.96 250.575 1513.07 251.717 1512.76 252.772C1511.58 257.061 1510.23 261.309 1508.73 265.473C1508.15 267.128 1506.61 268.231 1504.9 268.223C1504.43 268.221 1503.96 268.136 1503.51 267.972C1502.5 267.61 1501.68 266.843 1501.23 265.849C1500.75 264.847 1500.7 263.69 1501.07 262.643C1502.5 258.686 1503.8 254.604 1504.94 250.48ZM1445.85 234.448C1446.51 232.269 1448.76 231.03 1450.9 231.656C1451.88 231.919 1452.71 232.575 1453.21 233.472L1453.4 233.837C1453.85 234.762 1453.93 235.831 1453.63 236.821C1450.83 246.457 1446.93 255.724 1442.02 264.432C1441.31 265.721 1439.97 266.516 1438.52 266.514C1437.81 266.528 1437.1 266.341 1436.49 265.973C1435.54 265.423 1434.86 264.512 1434.57 263.441C1434.29 262.37 1434.44 261.228 1434.98 260.267C1439.57 252.12 1443.22 243.456 1445.85 234.448ZM1389.65 258.222C1391.29 256.653 1393.85 256.73 1395.4 258.394C1396.94 260.076 1396.87 262.718 1395.23 264.308C1394.44 265.066 1393.38 265.469 1392.3 265.43C1391.21 265.391 1390.19 264.911 1389.45 264.098C1387.93 262.417 1388.01 259.791 1389.65 258.222ZM1179.21 256.103C1181.32 255.351 1183.64 256.409 1184.5 258.518C1185.28 260.668 1184.23 263.064 1182.14 263.891C1181.67 264.075 1181.17 264.174 1180.67 264.182C1179.02 264.144 1177.53 263.118 1176.89 261.559V261.475C1176.48 260.454 1176.51 259.309 1176.97 258.311C1177.39 257.297 1178.2 256.502 1179.21 256.103ZM1295.01 255.386C1296.61 254.433 1298.64 254.701 1299.95 256.042C1301.26 257.384 1301.53 259.46 1300.6 261.101C1299.88 262.387 1298.54 263.181 1297.1 263.183C1295.24 263.199 1293.61 261.937 1293.12 260.107C1292.63 258.277 1293.4 256.34 1295.01 255.386ZM1366.28 255.354C1367.21 254.79 1368.32 254.631 1369.36 254.913C1370.4 255.195 1371.29 255.894 1371.82 256.853C1372.37 257.808 1372.52 258.947 1372.25 260.018C1371.97 261.089 1371.29 262.004 1370.35 262.559C1368.39 263.685 1365.91 263 1364.77 261.018C1363.66 259.028 1364.34 256.495 1366.28 255.354ZM1466.2 237.478C1466.79 235.26 1469.03 233.956 1471.2 234.566C1473.37 235.176 1474.64 237.468 1474.05 239.686C1472.54 245.293 1470.71 250.806 1468.58 256.197C1467.73 258.328 1465.36 259.356 1463.27 258.493C1461.19 257.629 1460.18 255.2 1461.03 253.069C1463.04 247.979 1464.77 242.773 1466.2 237.478ZM1289.45 151.667C1306.92 133.801 1333.2 128.456 1356.02 138.125C1378.85 147.795 1393.73 170.574 1393.73 195.841C1393.69 230.326 1366.36 258.272 1332.65 258.311C1307.94 258.311 1285.67 243.091 1276.21 219.748C1266.76 196.404 1271.98 169.534 1289.45 151.667ZM1221.67 248.473C1223.32 248.4 1224.86 249.358 1225.55 250.897L1225.63 251.088C1226 252.052 1226.02 253.125 1225.67 254.104C1225.08 255.74 1223.55 256.822 1221.84 256.81C1220.26 256.798 1218.82 255.861 1218.14 254.397C1217.69 253.399 1217.65 252.261 1218.01 251.23C1218.57 249.636 1220.02 248.546 1221.67 248.473ZM1263.02 248.718C1264.72 247.863 1266.77 248.317 1267.98 249.815C1269.39 251.602 1269.14 254.217 1267.41 255.686C1266.67 256.3 1265.75 256.638 1264.8 256.644C1262.91 256.635 1261.27 255.292 1260.84 253.403C1260.42 251.514 1261.32 249.574 1263.02 248.718ZM1332.65 141.7C1303.41 141.7 1279.71 165.94 1279.71 195.841C1279.71 225.742 1303.41 249.982 1332.65 249.982C1361.87 249.949 1385.55 225.728 1385.58 195.841C1385.58 165.94 1361.88 141.7 1332.65 141.7ZM1275.47 239.57C1277.21 238.104 1279.78 238.325 1281.25 240.068L1281.21 240.111C1281.92 240.943 1282.27 242.033 1282.18 243.131C1282.08 244.23 1281.56 245.244 1280.73 245.941C1279.91 246.665 1278.84 247.021 1277.77 246.926C1276.7 246.832 1275.7 246.296 1275.02 245.441H1274.98C1273.55 243.675 1273.77 241.062 1275.47 239.57ZM1384.12 239.985C1385.57 238.243 1388.13 238.026 1389.85 239.499C1391.57 240.971 1391.81 243.583 1390.39 245.357C1389.6 246.281 1388.45 246.813 1387.25 246.816C1386.3 246.836 1385.37 246.495 1384.65 245.858C1383.81 245.152 1383.29 244.131 1383.2 243.026C1383.1 241.921 1383.45 240.825 1384.16 239.985H1384.12ZM1406.53 238.285C1408.14 237.889 1409.82 238.524 1410.79 239.891C1411.75 241.259 1411.82 243.089 1410.95 244.526C1410.21 245.772 1408.88 246.53 1407.45 246.525C1406.71 246.517 1406 246.301 1405.37 245.901C1403.96 245.026 1403.21 243.365 1403.46 241.696C1403.71 240.027 1404.93 238.68 1406.53 238.285ZM1489.34 226.576C1489.72 224.317 1491.81 222.794 1494.02 223.162C1495.1 223.307 1496.06 223.912 1496.67 224.827C1497.31 225.712 1497.57 226.822 1497.4 227.908C1496.71 232.156 1495.86 236.363 1494.88 240.485C1494.53 241.928 1493.46 243.071 1492.06 243.484C1490.66 243.896 1489.16 243.515 1488.11 242.484C1487.06 241.453 1486.63 239.929 1486.98 238.486C1487.87 234.655 1488.69 230.657 1489.34 226.617V226.576ZM1250.75 227.867C1252.81 226.946 1255.21 227.894 1256.13 229.99C1256.56 231.006 1256.58 232.157 1256.19 233.189C1255.79 234.22 1255.01 235.048 1254.01 235.489C1253.5 235.717 1252.94 235.83 1252.38 235.82C1250.76 235.816 1249.29 234.838 1248.64 233.323C1248.21 232.312 1248.19 231.169 1248.59 230.145C1248.98 229.121 1249.76 228.301 1250.75 227.867ZM1190.08 203.688C1191.16 203.627 1192.22 204.007 1193.03 204.744C1193.83 205.48 1194.32 206.514 1194.37 207.617C1194.74 214.388 1195.58 221.125 1196.88 227.776C1197.33 230.047 1195.94 232.276 1193.73 232.802C1193.44 232.862 1193.15 232.893 1192.86 232.894C1190.98 232.927 1189.34 231.588 1188.95 229.706C1188.95 229.685 1188.9 229.408 1188.89 229.39C1187.52 222.359 1186.63 215.236 1186.24 208.077C1186.18 206.974 1186.55 205.892 1187.27 205.069C1188 204.246 1189.01 203.749 1190.08 203.688ZM1264.75 216.86C1266.76 216.365 1268.81 217.479 1269.53 219.455C1270.29 221.616 1269.22 224.006 1267.12 224.827C1266.67 224.99 1266.18 225.075 1265.7 225.077C1263.64 225.071 1261.91 223.492 1261.66 221.398C1261.42 219.304 1262.75 217.355 1264.75 216.86ZM1398.93 216.645C1400.37 216.388 1401.83 216.937 1402.77 218.084C1403.7 219.232 1403.97 220.802 1403.46 222.202C1402.86 223.833 1401.34 224.914 1399.63 224.911C1399.16 224.909 1398.69 224.823 1398.25 224.66C1397.23 224.289 1396.4 223.518 1395.94 222.516C1395.48 221.515 1395.43 220.367 1395.8 219.329C1396.3 217.926 1397.5 216.902 1398.93 216.645ZM1415.98 215.933C1417.39 215.559 1418.89 215.992 1419.91 217.065C1420.92 218.138 1421.3 219.686 1420.89 221.12C1420.41 222.918 1418.8 224.164 1416.98 224.16C1416.61 224.166 1416.24 224.111 1415.88 223.994C1414.84 223.696 1413.96 222.989 1413.44 222.028C1412.91 221.067 1412.78 219.931 1413.07 218.871C1413.45 217.429 1414.56 216.307 1415.98 215.933ZM1169.72 194.756C1170.8 194.745 1171.84 195.181 1172.61 195.964C1173.37 196.748 1173.8 197.814 1173.79 198.921V199.839C1173.79 203.628 1173.95 207.418 1174.2 211.125C1174.34 213.414 1172.65 215.39 1170.41 215.54C1170.32 215.573 1170.22 215.587 1170.12 215.581C1167.99 215.563 1166.22 213.883 1166.05 211.708L1165.97 210.196C1165.77 206.671 1165.65 203.191 1165.65 199.838V198.88C1165.67 196.597 1167.48 194.759 1169.72 194.756ZM1245.53 204.07C1247.69 203.861 1249.63 205.426 1249.94 207.625H1249.98C1250.27 209.911 1248.71 212.009 1246.48 212.333C1246.29 212.368 1246.1 212.382 1245.91 212.374C1243.74 212.371 1241.95 210.625 1241.85 208.406C1241.75 206.187 1243.37 204.278 1245.53 204.07ZM1210.97 187.719C1212.05 187.785 1213.07 188.294 1213.78 189.132C1214.49 189.971 1214.84 191.067 1214.76 192.174C1214.59 194.757 1214.51 197.381 1214.51 200.046C1214.51 201.338 1214.55 202.753 1214.59 204.253C1214.65 206.547 1212.89 208.458 1210.64 208.542H1210.52C1208.32 208.535 1206.52 206.749 1206.45 204.501C1206.41 203.086 1206.37 201.628 1206.37 200.046C1206.37 197.214 1206.45 194.383 1206.65 191.593C1206.8 189.306 1208.73 187.572 1210.97 187.719ZM1149.38 196.236C1151.63 196.225 1153.46 198.079 1153.47 200.379C1153.48 201.867 1152.71 203.246 1151.45 203.997C1150.2 204.747 1148.64 204.755 1147.38 204.017C1146.12 203.279 1145.33 201.908 1145.33 200.42C1145.31 198.12 1147.13 196.247 1149.38 196.236ZM1513 196.298C1514.16 195.09 1515.91 194.719 1517.44 195.359C1518.97 195.999 1519.97 197.524 1519.97 199.214C1519.97 199.354 1519.96 199.494 1519.92 199.629C1519.96 199.736 1519.97 199.85 1519.97 199.962V200.005C1519.97 202.305 1518.14 204.17 1515.89 204.17C1513.64 204.17 1511.82 202.305 1511.82 200.005V199.171C1511.81 198.088 1512.24 197.049 1513 196.298ZM1261.38 191.842C1262.46 191.829 1263.5 192.258 1264.26 193.033C1265.03 193.807 1265.46 194.863 1265.45 195.964C1265.45 198.27 1263.64 200.145 1261.38 200.172C1259.13 200.172 1257.31 198.307 1257.31 196.007C1257.31 193.707 1259.13 191.843 1261.38 191.842ZM1403.89 191.363C1406.14 191.352 1407.97 193.207 1407.98 195.507V195.84C1407.98 198.14 1406.16 200.005 1403.91 200.005C1401.66 200.005 1399.84 198.14 1399.84 195.84V195.548C1399.83 193.248 1401.64 191.374 1403.89 191.363ZM1420.2 191.3C1421.28 191.297 1422.32 191.733 1423.08 192.515C1423.85 193.297 1424.27 194.359 1424.27 195.464V195.841C1424.27 198.141 1422.45 200.005 1420.2 200.005C1417.95 200.005 1416.13 198.141 1416.13 195.841V195.507C1416.11 194.395 1416.54 193.324 1417.3 192.534C1418.07 191.743 1419.11 191.299 1420.2 191.3ZM1471.5 166.816C1473.71 166.365 1475.85 167.828 1476.29 170.083L1476.39 170.556C1477.79 177.698 1478.68 184.933 1479.06 192.206C1479.12 193.308 1478.75 194.389 1478.03 195.21C1477.31 196.032 1476.29 196.527 1475.22 196.585C1475.14 196.59 1475.07 196.591 1474.99 196.591C1472.83 196.59 1471.05 194.857 1470.93 192.648C1470.57 185.791 1469.73 178.969 1468.41 172.236L1468.31 171.717C1467.87 169.462 1469.3 167.267 1471.5 166.816ZM1452.2 173.85C1454.41 173.489 1456.5 174.981 1456.93 177.224C1457.66 181.431 1458.19 185.76 1458.52 190.008C1458.61 191.114 1458.26 192.212 1457.56 193.056C1456.85 193.901 1455.85 194.423 1454.77 194.507H1454.48C1452.36 194.509 1450.59 192.842 1450.41 190.675C1450.13 186.761 1449.6 182.721 1448.9 178.682C1448.71 177.594 1448.95 176.471 1449.57 175.564C1450.19 174.657 1451.14 174.04 1452.2 173.85ZM1241.83 183.304C1242.12 181.098 1244.05 179.514 1246.22 179.708C1248.39 179.904 1250.02 181.81 1249.93 184.033C1249.83 186.256 1248.04 188.008 1245.87 188.009C1245.69 188.016 1245.51 188.003 1245.34 187.969C1243.11 187.667 1241.55 185.581 1241.83 183.304ZM1493.5 173.35C1495.72 173.04 1497.77 174.634 1498.08 176.911C1498.38 179.188 1496.82 181.286 1494.6 181.596C1494.41 181.631 1494.22 181.646 1494.02 181.639C1492 181.622 1490.29 180.103 1489.99 178.058C1489.69 175.769 1491.26 173.661 1493.5 173.35ZM1415.76 167.311C1417.93 166.678 1420.19 167.965 1420.81 170.184C1421.43 172.404 1420.17 174.716 1418 175.349C1417.64 175.445 1417.27 175.5 1416.9 175.515C1415.07 175.509 1413.46 174.272 1412.95 172.475C1412.33 170.256 1413.59 167.944 1415.76 167.311ZM1261.79 169.644C1262.55 167.482 1264.89 166.364 1267 167.146C1269.12 167.928 1270.21 170.313 1269.45 172.475C1268.87 174.126 1267.33 175.227 1265.62 175.225C1265.15 175.227 1264.68 175.142 1264.23 174.975C1262.12 174.193 1261.02 171.806 1261.79 169.644ZM1398.12 166.729C1400.24 165.935 1402.58 167.044 1403.36 169.206C1404.13 171.367 1403.05 173.764 1400.94 174.558C1400.49 174.722 1400.02 174.806 1399.55 174.808C1397.57 174.813 1395.88 173.368 1395.53 171.379C1395.18 169.391 1396.27 167.431 1398.12 166.729ZM1196.61 144.065C1197.45 141.931 1199.82 140.898 1201.91 141.757C1204 142.616 1205.01 145.042 1204.17 147.176L1203.43 149.092C1201.74 153.576 1200.27 158.145 1199.03 162.782C1198.54 164.592 1196.94 165.848 1195.1 165.85C1194.74 165.849 1194.38 165.799 1194.02 165.702C1191.86 165.095 1190.58 162.805 1191.17 160.585C1192.67 154.976 1194.49 149.46 1196.61 144.065ZM1248.51 158.69C1249.33 156.797 1251.39 155.811 1253.34 156.38C1255.29 156.949 1256.53 158.899 1256.24 160.95C1255.96 163 1254.25 164.524 1252.22 164.522C1251.68 164.511 1251.14 164.399 1250.63 164.189C1249.64 163.749 1248.85 162.921 1248.46 161.889C1248.06 160.857 1248.08 159.706 1248.51 158.69ZM1458.45 126.996C1459.91 127.045 1461.23 127.886 1461.91 129.202C1466.6 138.179 1470.39 147.623 1473.21 157.386C1473.62 158.813 1473.26 160.357 1472.25 161.435C1471.25 162.513 1469.76 162.963 1468.35 162.615C1466.93 162.266 1465.81 161.172 1465.4 159.746C1462.74 150.526 1459.16 141.608 1454.73 133.13C1454.04 131.818 1454.09 130.229 1454.86 128.962C1455.62 127.696 1456.99 126.946 1458.45 126.996ZM1182.75 124.749C1183.77 122.719 1186.18 121.874 1188.21 122.833C1190.22 123.852 1191.06 126.343 1190.08 128.415C1185.98 136.922 1182.62 145.786 1180.06 154.902C1179.53 156.676 1177.93 157.889 1176.11 157.899C1175.74 157.884 1175.37 157.828 1175.01 157.732C1173.98 157.414 1173.1 156.698 1172.57 155.733C1172.04 154.769 1171.91 153.632 1172.2 152.569C1174.94 143.007 1178.47 133.701 1182.75 124.749ZM1274.4 147.023C1275.38 145.256 1277.47 144.467 1279.34 145.155C1281.21 145.842 1282.33 147.807 1281.98 149.81C1281.64 151.813 1279.94 153.276 1277.96 153.277C1277 153.297 1276.07 152.956 1275.35 152.319C1273.82 151.024 1273.42 148.79 1274.4 147.023ZM1404 146.571C1404.97 145.207 1406.64 144.576 1408.24 144.97C1409.85 145.365 1411.06 146.708 1411.31 148.373C1411.56 150.037 1410.81 151.694 1409.4 152.569C1408.77 152.977 1408.04 153.194 1407.29 153.194C1405.87 153.187 1404.56 152.43 1403.83 151.195C1402.96 149.76 1403.03 147.934 1404 146.571ZM1156.4 134.91C1157.2 132.761 1159.53 131.654 1161.65 132.413C1163.75 133.213 1164.84 135.582 1164.1 137.743C1162.67 141.657 1161.41 145.781 1160.23 149.903C1159.74 151.7 1158.14 152.945 1156.32 152.944C1155.95 152.929 1155.58 152.873 1155.22 152.777C1153.06 152.136 1151.8 149.832 1152.41 147.614C1153.59 143.366 1154.94 139.074 1156.4 134.91ZM1384.44 145.614C1386.16 144.131 1388.73 144.355 1390.18 146.114C1391.63 147.873 1391.42 150.502 1389.7 151.986C1388.97 152.611 1388.04 152.95 1387.09 152.944C1385.89 152.948 1384.74 152.415 1383.95 151.485C1382.5 149.725 1382.72 147.097 1384.44 145.614ZM1233.28 120.333C1234.69 118.574 1237.21 118.262 1238.99 119.625C1239.84 120.298 1240.4 121.295 1240.53 122.392C1240.66 123.489 1240.35 124.593 1239.68 125.456C1234.03 132.881 1229.23 140.944 1225.38 149.486C1224.71 150.958 1223.27 151.9 1221.68 151.902C1221.09 151.898 1220.51 151.771 1219.97 151.528C1218.98 151.073 1218.22 150.232 1217.85 149.196C1217.48 148.151 1217.53 147.001 1217.97 145.989C1222.1 136.866 1227.24 128.258 1233.28 120.333ZM1496.26 115.377C1498.29 114.448 1500.67 115.311 1501.68 117.336C1506.05 126.73 1509.69 136.464 1512.55 146.446C1512.84 147.509 1512.71 148.648 1512.19 149.613C1511.7 150.595 1510.82 151.32 1509.78 151.612C1509.41 151.725 1509.03 151.781 1508.64 151.778C1506.83 151.778 1505.24 150.556 1504.73 148.779C1502.02 139.219 1498.54 129.901 1494.35 120.917C1493.88 119.932 1493.8 118.794 1494.15 117.753C1494.5 116.698 1495.27 115.838 1496.26 115.377ZM1263.13 135.596C1264.5 135.067 1266.04 135.33 1267.16 136.285C1268 136.976 1268.53 137.982 1268.64 139.078C1268.75 140.173 1268.42 141.267 1267.74 142.115C1266.99 143.104 1265.82 143.675 1264.6 143.657C1263.67 143.672 1262.76 143.347 1262.03 142.741C1260.89 141.808 1260.32 140.32 1260.55 138.842C1260.78 137.365 1261.76 136.125 1263.13 135.596ZM1294.81 129.206C1295.74 128.644 1296.85 128.486 1297.89 128.768C1298.93 129.05 1299.82 129.748 1300.35 130.705C1300.9 131.659 1301.06 132.799 1300.78 133.87C1300.51 134.941 1299.82 135.855 1298.89 136.411C1298.27 136.768 1297.56 136.955 1296.85 136.952C1295.41 136.968 1294.07 136.187 1293.35 134.91C1292.8 133.955 1292.65 132.816 1292.92 131.746C1293.2 130.675 1293.88 129.76 1294.81 129.206ZM1364.53 130.538C1365.64 128.556 1368.11 127.871 1370.05 129.007C1371.99 130.144 1372.67 132.672 1371.56 134.657C1370.45 136.642 1367.98 137.333 1366.04 136.202C1364.1 135.055 1363.43 132.529 1364.53 130.538ZM1433.51 127.959C1435.31 127.21 1437.38 127.872 1438.44 129.538C1439.66 131.46 1439.13 134.029 1437.26 135.287C1436.61 135.73 1435.84 135.961 1435.06 135.951C1433.12 135.96 1431.44 134.558 1431.06 132.609C1430.69 130.659 1431.71 128.709 1433.51 127.959ZM1389.21 127.373C1390.73 125.691 1393.29 125.579 1394.95 127.124C1396.59 128.703 1396.68 131.344 1395.15 133.038C1393.6 134.675 1391.07 134.766 1389.41 133.245C1387.78 131.677 1387.69 129.054 1389.21 127.373ZM1463.81 101.051C1465.66 99.7856 1468.16 100.245 1469.47 102.092C1475.06 110.254 1479.92 118.91 1484.01 127.956C1484.95 130.038 1484.08 132.508 1482.05 133.495C1481.51 133.737 1480.93 133.865 1480.34 133.869C1478.75 133.867 1477.31 132.927 1476.64 131.456C1472.73 122.855 1468.1 114.619 1462.79 106.841C1462.18 105.929 1461.93 104.811 1462.1 103.717C1462.3 102.632 1462.92 101.673 1463.81 101.051ZM1319.37 120.002C1320.43 119.805 1321.53 120.05 1322.42 120.683C1323.3 121.316 1323.91 122.284 1324.09 123.374C1324.46 125.633 1322.99 127.778 1320.79 128.206C1320.55 128.241 1320.31 128.255 1320.06 128.248C1318.1 128.246 1316.42 126.807 1316.07 124.832C1315.87 123.742 1316.1 122.614 1316.72 121.705C1317.34 120.795 1318.3 120.182 1319.37 120.002ZM1340.79 123.291C1341.16 121.119 1343.12 119.618 1345.26 119.867C1347.4 120.115 1348.98 122.027 1348.86 124.227C1348.75 126.427 1346.97 128.153 1344.82 128.165C1344.59 128.173 1344.36 128.158 1344.13 128.122C1341.9 127.726 1340.41 125.567 1340.79 123.291ZM1226.4 96.6831C1227.95 95.0157 1230.53 94.9476 1232.16 96.5308C1233.79 98.1144 1233.85 100.751 1232.31 102.418C1225.83 109.395 1220.07 117.023 1215.1 125.184C1214.33 126.447 1212.96 127.193 1211.51 127.143C1210.05 127.093 1208.73 126.254 1208.05 124.941C1207.36 123.628 1207.42 122.041 1208.19 120.779C1213.45 112.14 1219.55 104.067 1226.4 96.6831ZM1279.63 119.418C1281.46 118.106 1283.98 118.557 1285.27 120.426C1286.56 122.296 1286.13 124.881 1284.31 126.207C1283.64 126.725 1282.83 127.003 1281.99 126.998C1280.66 126.995 1279.42 126.345 1278.65 125.249C1277.35 123.361 1277.79 120.756 1279.63 119.418ZM1371.4 112.211C1372.43 111.867 1373.55 111.959 1374.51 112.464H1374.55C1376.54 113.533 1377.32 116.037 1376.3 118.084C1375.6 119.474 1374.2 120.344 1372.67 120.333C1372.02 120.346 1371.38 120.189 1370.8 119.876C1369.84 119.374 1369.12 118.503 1368.79 117.457C1368.47 116.41 1368.56 115.273 1369.05 114.296C1369.53 113.307 1370.38 112.556 1371.4 112.211ZM1301.7 107.632C1303.06 107.127 1304.59 107.405 1305.7 108.364C1306.82 109.322 1307.34 110.815 1307.09 112.279C1306.83 113.743 1305.83 114.956 1304.46 115.461C1303.44 115.842 1302.32 115.787 1301.34 115.309C1300.36 114.831 1299.61 113.971 1299.25 112.921C1298.88 111.889 1298.93 110.746 1299.39 109.751C1299.85 108.757 1300.68 107.993 1301.7 107.632ZM1430.88 94.2935C1432.47 92.6733 1435.04 92.6754 1436.63 94.2983C1440.64 98.4165 1444.41 102.77 1447.93 107.335C1448.84 108.504 1449.07 110.081 1448.53 111.469C1447.99 112.857 1446.76 113.843 1445.32 114.054C1443.87 114.265 1442.42 113.668 1441.53 112.489C1438.21 108.177 1434.65 104.065 1430.86 100.175C1429.28 98.5446 1429.29 95.9136 1430.88 94.2935ZM1348.9 104.139C1350.29 103.668 1351.81 103.984 1352.9 104.971C1353.99 105.958 1354.48 107.465 1354.19 108.923C1353.78 110.851 1352.12 112.235 1350.2 112.254C1349.92 112.25 1349.65 112.222 1349.38 112.171C1348.32 111.957 1347.39 111.316 1346.79 110.393C1346.19 109.47 1345.98 108.341 1346.2 107.258C1346.5 105.8 1347.52 104.611 1348.9 104.139ZM1326.12 102.384C1328.35 102.228 1330.29 103.949 1330.45 106.232C1330.61 108.515 1328.93 110.501 1326.7 110.672H1326.41C1324.27 110.684 1322.48 108.987 1322.34 106.798L1322.33 106.585C1322.3 104.393 1323.96 102.536 1326.12 102.384ZM1371.9 81.603C1372.74 79.4906 1375.05 78.4261 1377.15 79.187L1378.87 79.8647C1387.44 83.3147 1395.62 87.7093 1403.26 92.9722C1404.15 93.5892 1404.78 94.5469 1404.98 95.6333C1405.19 96.7198 1404.96 97.8461 1404.36 98.7622C1403.76 99.6747 1402.83 100.306 1401.77 100.517C1400.72 100.728 1399.63 100.501 1398.74 99.8862C1391.09 94.6535 1382.9 90.3219 1374.3 86.9751C1372.19 86.1694 1371.11 83.7654 1371.9 81.603ZM1197.57 67.2769C1199.15 65.681 1201.67 65.6257 1203.31 67.1509C1204.08 67.9256 1204.53 68.9672 1204.57 70.0669C1204.6 71.1818 1204.19 72.2614 1203.44 73.0659C1196.69 80.2388 1190.52 87.9544 1184.99 96.1382C1184.39 97.0612 1183.45 97.6972 1182.38 97.9009C1181.31 98.1046 1180.21 97.859 1179.33 97.2202L1179.16 97.0933C1177.47 95.7404 1177.08 93.2618 1178.31 91.4312C1184.08 82.859 1190.52 74.7808 1197.57 67.2769ZM1272.95 86.5679C1274.58 86.3767 1276.17 87.2109 1276.98 88.6831C1277.5 89.648 1277.63 90.784 1277.35 91.8472C1277.03 92.9072 1276.33 93.8036 1275.39 94.3472C1274.79 94.6853 1274.12 94.871 1273.44 94.8882C1271.94 94.8877 1270.57 94.0577 1269.85 92.7222L1269.76 92.5396C1269.31 91.6163 1269.21 90.5545 1269.48 89.5581C1269.94 87.9386 1271.31 86.7592 1272.95 86.5679ZM1252.52 74.4038C1254.4 73.1546 1256.92 73.6987 1258.15 75.6206C1259.38 77.5426 1258.85 80.1184 1256.98 81.3794C1251.36 85.131 1246.02 89.2961 1240.99 93.8423C1239.31 95.3661 1236.73 95.2055 1235.24 93.4829C1233.75 91.7598 1233.91 89.1284 1235.59 87.604C1240.92 82.7902 1246.57 78.3781 1252.52 74.4038ZM1211.17 82.811C1212.74 81.1898 1215.28 81.0985 1216.95 82.603C1217.72 83.3773 1218.17 84.4179 1218.22 85.5171C1218.24 86.6039 1217.86 87.6597 1217.16 88.4741C1217.12 88.4741 1217.12 88.4744 1217.12 88.5171C1216.34 89.3486 1215.27 89.8158 1214.15 89.8081C1213.12 89.8099 1212.12 89.407 1211.38 88.6831C1210.58 87.9356 1210.11 86.894 1210.07 85.7905C1210.04 84.6871 1210.43 83.614 1211.17 82.811ZM1461.16 66.3589C1462.78 64.7796 1465.33 64.8174 1466.9 66.4429C1470 69.6495 1472.93 72.9823 1475.7 76.313C1476.39 77.1631 1476.72 78.2546 1476.64 79.354C1476.57 80.4609 1476.05 81.4883 1475.21 82.186C1474.48 82.8167 1473.56 83.17 1472.6 83.1851C1471.39 83.1911 1470.24 82.6408 1469.47 81.686C1466.82 78.4792 1464.01 75.3147 1461.08 72.2319C1460.31 71.4555 1459.9 70.3819 1459.94 69.2759C1459.94 68.1728 1460.38 67.1165 1461.16 66.3589ZM1331.87 70.8579C1334.12 70.8652 1335.94 72.725 1335.94 75.022C1335.95 76.1162 1335.52 77.1662 1334.76 77.938C1334.02 78.7384 1332.99 79.1906 1331.91 79.187C1328.04 79.2297 1324.05 79.4371 1320.14 79.854C1320 79.8859 1319.85 79.8999 1319.7 79.895C1318.13 79.8811 1316.71 78.9571 1316.04 77.5142C1315.36 76.0713 1315.55 74.3611 1316.52 73.1069C1317.19 72.2435 1318.18 71.7007 1319.25 71.6079C1323.4 71.1504 1327.64 70.9006 1331.87 70.8579ZM1422.64 61.1128C1423.96 59.2615 1426.47 58.8027 1428.34 60.0718C1431.76 62.5283 1435.14 65.111 1438.32 67.7769C1439.16 68.4597 1439.69 69.4696 1439.78 70.5669C1439.91 71.7372 1439.54 72.9074 1438.77 73.7827C1438 74.658 1436.9 75.1547 1435.75 75.1479C1434.82 75.1694 1433.91 74.8437 1433.19 74.231C1430.13 71.6911 1426.92 69.2323 1423.66 66.9019C1421.83 65.5786 1421.38 63.0036 1422.64 61.1128ZM1375.22 58.6372C1376.31 57.6524 1377.84 57.3405 1379.22 57.8188C1385.96 60.1357 1392.52 62.9496 1398.86 66.2378C1400.16 66.9083 1401.02 68.2393 1401.1 69.728C1401.18 71.2168 1400.47 72.6362 1399.25 73.4487C1398.03 74.2611 1396.47 74.3429 1395.18 73.6636C1389.19 70.5593 1382.99 67.9018 1376.63 65.7124C1375.24 65.2417 1374.21 64.0516 1373.92 62.5913C1373.63 61.1308 1374.13 59.6224 1375.22 58.6372ZM1311.9 51.5815C1314.12 51.2616 1316.18 52.8377 1316.51 55.1099C1316.66 56.2031 1316.38 57.3143 1315.74 58.1987C1315.09 59.083 1314.13 59.6683 1313.06 59.8257C1310.54 60.1977 1308.02 60.6412 1305.49 61.1558C1302.72 61.7252 1299.98 62.374 1297.27 63.1021C1295.1 63.6824 1292.88 62.3532 1292.3 60.1313C1291.73 57.9092 1293.03 55.6327 1295.2 55.0444C1298.06 54.2758 1300.96 53.5907 1303.89 52.9888C1306.56 52.4418 1309.23 51.9727 1311.9 51.5815ZM1337.4 50.1235C1347.36 50.4461 1357.25 51.8116 1366.93 54.1987C1369.12 54.7378 1370.46 56.9881 1369.94 59.2241C1369.41 61.46 1367.21 62.8354 1365.02 62.2964C1355.88 60.0432 1346.54 58.7538 1337.15 58.4487C1335.69 58.4092 1334.36 57.5744 1333.67 56.2603C1332.98 54.9461 1333.03 53.3539 1333.8 52.0864C1334.57 50.8189 1335.94 50.0697 1337.4 50.1235ZM1261.59 45.4526C1263.62 44.5448 1266 45.422 1267 47.4517C1267.47 48.4503 1267.52 49.5984 1267.16 50.6392C1266.79 51.6797 1266.03 52.5264 1265.05 52.9907C1261.55 54.6989 1258 56.5739 1254.46 58.5728C1253.86 58.9348 1253.17 59.1219 1252.47 59.1138C1250.99 59.1188 1249.64 58.3047 1248.92 56.9888C1247.83 54.9874 1248.52 52.4565 1250.47 51.3257C1254.13 49.2434 1257.88 47.2441 1261.59 45.4526ZM1378.54 40.0806C1379.22 37.9015 1381.49 36.6927 1383.63 37.3735C1385.54 37.9894 1386.73 39.9424 1386.43 41.9712C1386.12 44.0001 1384.41 45.4975 1382.41 45.4956C1381.98 45.5039 1381.55 45.4473 1381.14 45.3286C1380.12 44.9736 1379.28 44.2272 1378.78 43.2466C1378.28 42.2706 1378.19 41.125 1378.54 40.0806ZM1238.54 34.3335C1239.96 33.5036 1241.73 33.6247 1243.04 34.6411C1244.34 35.6576 1244.93 37.3731 1244.52 38.9985C1244.23 40.0671 1243.55 40.9777 1242.61 41.5376H1242.57C1241.96 41.9008 1241.27 42.088 1240.57 42.0786C1239.14 42.0787 1237.8 41.3039 1237.07 40.0396C1236.51 39.0881 1236.35 37.9445 1236.62 36.8696C1236.9 35.7947 1237.59 34.88 1238.54 34.3335ZM1420.2 35.2915C1421.35 33.3346 1423.81 32.6548 1425.77 33.7495C1427.36 34.6969 1428.12 36.6082 1427.65 38.4175C1427.17 40.2268 1425.57 41.4881 1423.74 41.4976C1423.02 41.5108 1422.32 41.3235 1421.7 40.9565C1419.76 39.8141 1419.09 37.2816 1420.2 35.2915ZM1333.58 29.2104H1334.4C1336.64 29.2452 1338.44 31.1215 1338.43 33.4165C1338.42 35.7117 1336.6 37.5701 1334.36 37.5825C1333.78 37.5399 1333.3 37.5405 1332.81 37.5405C1324.03 37.536 1315.27 38.2884 1306.62 39.7896C1306.41 39.8251 1306.19 39.8387 1305.97 39.8315C1303.97 39.8378 1302.26 38.354 1301.94 36.3325C1301.78 35.253 1302.03 34.1501 1302.63 33.2515C1303.27 32.3559 1304.22 31.7443 1305.28 31.5435C1314.63 29.9334 1324.1 29.1525 1333.58 29.2104ZM1299.54 11.4272C1300.6 11.2267 1301.7 11.4701 1302.59 12.104C1303.48 12.7379 1304.08 13.7099 1304.26 14.8013C1304.46 15.8767 1304.22 16.9887 1303.61 17.8843C1303.01 18.7974 1302.07 19.4154 1301.01 19.5903C1296.89 20.3407 1292.78 21.2552 1288.79 22.2964C1288.46 22.3793 1288.11 22.4216 1287.77 22.4224C1285.9 22.4286 1284.26 21.1192 1283.82 19.2563C1283.57 18.195 1283.73 17.0777 1284.27 16.1333C1284.82 15.1733 1285.73 14.4824 1286.79 14.2173C1290.91 13.1355 1295.18 12.2182 1299.54 11.4272ZM1347.26 9.01123C1357.41 9.80571 1367.47 11.4495 1377.36 13.9263C1378.41 14.1748 1379.32 14.8518 1379.88 15.8013C1380.45 16.7471 1380.61 17.8925 1380.33 18.9653C1380.08 20.0396 1379.41 20.9656 1378.49 21.5366C1377.56 22.1076 1376.45 22.2771 1375.4 22.0063C1365.96 19.663 1356.34 18.089 1346.65 17.3003C1345.58 17.2306 1344.58 16.7202 1343.88 15.8853C1342.81 14.6101 1342.59 12.7976 1343.33 11.2935C1344.07 9.7894 1345.62 8.88873 1347.26 9.01123Z" fill="#CD3C52" fill-opacity="0.41"/>
<path d="M811.48 9.76855C815.26 10.0157 819.289 12.5523 819.684 18.2178C824.082 19.2816 828.351 20.7683 832.437 22.541C835.824 18.571 840.803 16.0566 846.344 16.0566C856.513 16.0567 864.801 24.5268 864.801 34.9199C864.801 38.5244 863.772 41.8753 862.045 44.7441C873.99 59.0307 881.207 77.5547 881.207 97.7979C881.207 142.917 845.374 179.473 801.226 179.473C784.189 179.473 768.386 174.019 755.403 164.736C753.945 166.088 752.063 166.963 749.955 166.963C745.449 166.963 741.752 163.184 741.752 158.579C741.889 157.655 742.159 155.583 743.162 153.929C729.59 139.289 721.244 119.544 721.244 97.7979C721.244 78.2089 727.992 60.2077 739.253 46.1201C738.254 44.731 737.651 43.0504 737.65 41.208C737.65 36.6026 741.348 32.8244 745.854 32.8242C747.656 32.8242 749.301 33.4405 750.66 34.4609C764.445 22.9527 782.058 16.0567 801.226 16.0566C802.023 16.0566 802.805 16.0987 803.597 16.1221C804.492 12.4865 807.658 9.76873 811.48 9.76855ZM801.226 20.1836C783.028 20.1836 766.352 26.7615 753.288 37.6709C753.781 38.7449 754.058 39.9503 754.058 41.208C754.058 45.8133 750.36 49.5918 745.854 49.5918C744.623 49.5917 743.444 49.3091 742.394 48.8057C731.751 62.1644 725.346 79.2182 725.346 97.7979C725.346 118.505 733.32 137.28 746.238 151.179C747.363 150.583 748.609 150.196 749.955 150.196C754.461 150.196 758.159 153.975 758.159 158.58C758.159 159.513 757.989 160.425 757.71 161.266C770.034 170.108 785.006 175.347 801.226 175.347C843.157 175.347 877.106 140.652 877.106 97.7979C877.105 78.9176 870.5 61.604 859.546 48.1514C856.193 51.6449 851.493 53.7842 846.344 53.7842C836.175 53.7842 827.887 45.3136 827.887 34.9209C827.887 31.6942 828.724 28.6728 830.13 26.0127C826.423 24.4497 822.57 23.2307 818.594 22.2793C817.176 24.8066 814.515 26.5371 811.48 26.5371C807.679 26.5369 804.514 23.8536 803.597 20.249C802.808 20.2236 802.02 20.1836 801.226 20.1836ZM881.207 150.195C885.713 150.195 889.411 153.974 889.411 158.579C889.411 163.184 885.713 166.963 881.207 166.963C876.701 166.963 873.004 163.184 873.004 158.579C873.004 153.974 876.701 150.196 881.207 150.195ZM749.955 154.388C747.666 154.388 745.854 156.239 745.854 158.579C745.854 160.919 747.666 162.771 749.955 162.771C752.245 162.771 754.058 160.919 754.058 158.579C754.058 156.239 752.245 154.388 749.955 154.388ZM881.207 154.388C878.918 154.388 877.106 156.239 877.106 158.579C877.106 160.919 878.918 162.771 881.207 162.771C883.497 162.771 885.31 160.919 885.31 158.579C885.309 156.239 883.497 154.388 881.207 154.388ZM801.226 47.4951C828.385 47.4951 850.445 70.0417 850.445 97.7979C850.445 125.554 828.384 148.034 801.226 148.034C774.067 148.034 752.006 125.554 752.006 97.7979C752.006 70.0417 774.067 47.4952 801.226 47.4951ZM801.226 51.6211C781.303 51.6211 764.464 64.8329 758.48 83.125H797.124C798.207 83.1108 799.201 84.115 799.201 85.2217C799.201 86.328 798.207 87.3386 797.124 87.3174H757.262C756.648 90.0239 756.298 92.8339 756.172 95.7002H788.921C790.004 95.686 790.998 96.6902 790.998 97.7969C790.998 98.9032 790.003 99.9137 788.921 99.8926H756.172C757.25 124.4 776.976 143.907 801.226 143.907C816.183 143.907 829.426 136.475 837.628 125.044H811.48C810.406 125.146 809.338 124.241 809.237 123.145C809.137 122.047 810.022 120.956 811.096 120.852H840.319C841.805 118.222 843.013 115.393 843.973 112.468H803.276C802.203 112.57 801.135 111.665 801.034 110.568C800.934 109.471 801.819 108.38 802.893 108.276C815.452 108.276 830.58 108.14 845.126 108.407C845.91 104.998 846.344 101.453 846.344 97.7969C846.344 88.4584 843.63 79.7765 838.974 72.5156C831.359 73.1993 823.303 72.2931 815.581 72.6465C814.507 72.7495 813.439 71.8445 813.338 70.7471C813.237 69.6496 814.123 68.5569 815.197 68.4551H836.025C827.758 58.2028 815.256 51.6221 801.226 51.6221V51.6211ZM883.258 37.0156C887.764 37.0156 891.462 40.794 891.462 45.3994C891.462 50.0048 887.764 53.7832 883.258 53.7832C878.752 53.7829 875.055 50.0046 875.055 45.3994C875.055 40.7942 878.752 37.0159 883.258 37.0156ZM846.344 20.249C838.391 20.249 831.988 26.7933 831.988 34.9209C831.989 43.0483 838.391 49.5918 846.344 49.5918C854.296 49.5918 860.699 43.0483 860.699 34.9209C860.699 26.7933 854.296 20.2491 846.344 20.249ZM883.258 41.208C880.969 41.2083 879.156 43.0597 879.156 45.3994C879.156 47.7391 880.969 49.5915 883.258 49.5918C885.547 49.5918 887.36 47.7392 887.36 45.3994C887.36 43.0596 885.547 41.208 883.258 41.208ZM745.854 37.0156C743.564 37.0158 741.752 38.8681 741.752 41.208C741.752 43.5476 743.564 45.3992 745.854 45.3994C748.143 45.3994 749.955 43.5477 749.955 41.208C749.955 38.868 748.143 37.0156 745.854 37.0156ZM811.48 13.9609C809.19 13.9611 807.378 15.8128 807.378 18.1523C807.378 20.4922 809.19 22.3445 811.48 22.3447C813.769 22.3447 815.581 20.4924 815.581 18.1523C815.581 15.8127 813.769 13.9609 811.48 13.9609Z" fill="#CD3C52" fill-opacity="0.41"/>
<path d="M671.514 287.065C678.871 287.066 684.854 293.165 684.854 300.665C684.854 308.165 678.871 314.265 671.514 314.265C664.157 314.265 658.174 308.165 658.174 300.665C658.174 293.165 664.157 287.065 671.514 287.065ZM671.514 291.599C666.61 291.599 662.621 295.665 662.621 300.665C662.621 305.665 666.61 309.731 671.514 309.731C676.419 309.731 680.407 305.665 680.407 300.665C680.407 295.665 676.419 291.599 671.514 291.599Z" fill="#CD3C52" fill-opacity="0.41"/>
<path d="M671.514 244C679.215 244 685.883 253.506 689.857 268.259C692.22 267.624 694.537 267.08 696.751 266.704C708.345 264.741 716.48 266.736 719.648 272.332C722.774 277.851 720.506 285.904 713.259 295.014L709.806 292.158C715.722 284.719 717.903 278.321 715.795 274.597C713.654 270.812 706.973 269.562 697.48 271.174C695.379 271.53 693.176 272.049 690.926 272.656C691.953 277.353 692.724 282.477 693.197 287.924C695.401 289.501 697.549 291.111 699.581 292.771L696.802 296.311C695.757 295.458 694.677 294.624 693.585 293.792C693.69 296.043 693.747 298.333 693.747 300.665C693.747 302.993 693.689 305.28 693.589 307.53C694.394 306.918 695.205 306.309 695.983 305.686L698.732 309.248C696.957 310.669 695.099 312.05 693.2 313.407C692.727 318.852 691.955 323.979 690.928 328.673C693.176 329.28 695.379 329.799 697.482 330.155C706.975 331.764 713.654 330.518 715.797 326.73C717.909 323.006 715.724 316.605 709.806 309.164L713.259 306.311C720.509 315.42 722.776 323.478 719.65 328.997C717.276 333.19 712.118 335.364 704.804 335.364C702.356 335.364 699.663 335.121 696.753 334.627C694.539 334.251 692.222 333.707 689.858 333.07C685.883 347.823 679.215 357.329 671.514 357.329C665.186 357.329 659.431 351.168 655.307 339.985L659.466 338.39C662.845 347.546 667.236 352.796 671.514 352.796C676.621 352.796 682.07 344.872 685.563 331.799C681.014 330.332 676.292 328.442 671.508 326.173C669.56 327.098 667.61 327.984 665.671 328.786L663.999 324.584C664.768 324.267 665.542 323.913 666.314 323.575C664.337 322.533 662.358 321.453 660.389 320.293C658.417 319.133 656.507 317.924 654.631 316.698C654.789 318.051 654.953 319.4 655.148 320.722L650.753 321.404C650.364 318.802 650.075 316.127 649.839 313.419C645.508 310.323 641.535 307.091 638.007 303.8C636.348 305.502 634.79 307.206 633.425 308.901L629.987 306.025C631.426 304.242 633.06 302.451 634.799 300.665C633.08 298.899 631.464 297.129 630.039 295.365C622.571 286.108 620.201 277.928 623.371 272.332C626.233 267.278 632.96 265.168 642.838 266.227L642.374 270.734C634.608 269.896 629.088 271.306 627.225 274.599C625.081 278.386 627.36 284.905 633.476 292.484C634.83 294.162 636.371 295.848 638.012 297.53C641.54 294.239 645.513 291.006 649.844 287.91C650.079 285.202 650.371 282.527 650.758 279.928L655.153 280.607C654.958 281.929 654.792 283.278 654.637 284.631C656.513 283.405 658.424 282.197 660.396 281.036C662.363 279.878 664.342 278.797 666.318 277.754C665.547 277.414 664.775 277.062 664.006 276.745L665.678 272.543C667.616 273.345 669.564 274.234 671.514 275.156C676.298 272.887 681.023 271 685.572 269.531C682.071 256.458 676.621 248.533 671.514 248.533C667.236 248.534 662.848 253.781 659.471 262.931L655.311 261.335C659.432 250.156 665.189 244 671.514 244ZM688.398 316.691C686.515 317.922 684.603 319.133 682.631 320.293C680.659 321.456 678.673 322.54 676.686 323.587C680.072 325.076 683.4 326.339 686.635 327.393C687.351 324.074 687.955 320.513 688.398 316.691ZM671.503 280.159C668.548 281.621 665.578 283.221 662.621 284.962C659.66 286.705 656.809 288.529 654.088 290.41C653.848 293.765 653.728 297.19 653.728 300.665C653.728 304.14 653.848 307.565 654.088 310.919C656.809 312.8 659.66 314.624 662.621 316.367C665.578 318.108 668.548 319.709 671.503 321.171C674.478 319.702 677.455 318.106 680.407 316.367C683.353 314.633 686.194 312.811 688.927 310.921C689.162 307.634 689.301 304.219 689.301 300.665C689.301 297.107 689.162 293.688 688.927 290.399C686.201 288.514 683.355 286.698 680.407 284.962C677.455 283.223 674.478 281.628 671.503 280.159ZM649.457 293.77C646.493 296.02 643.754 298.33 641.235 300.665C643.754 303 646.494 305.309 649.457 307.56C649.353 305.282 649.281 302.988 649.281 300.665C649.281 298.342 649.353 296.047 649.457 293.77ZM686.637 273.938C683.4 274.994 680.074 276.254 676.688 277.745C678.675 278.792 680.661 279.876 682.633 281.036C684.605 282.197 686.519 283.407 688.399 284.638C687.955 280.816 687.353 277.256 686.637 273.938Z" fill="#CD3C52" fill-opacity="0.41"/>
<path d="M630.228 329.382L628.314 333.473C630.919 334.74 634.208 335.375 638.138 335.375C640.288 335.375 642.632 335.184 645.162 334.804L644.51 330.318C638.338 331.252 633.4 330.925 630.228 329.382Z" fill="#CD3C52" fill-opacity="0.41"/>
<path d="M653.728 264.399C657.405 264.399 660.398 267.45 660.398 271.199C660.398 274.948 657.405 277.999 653.728 277.999C650.051 277.999 647.058 274.948 647.058 271.199C647.058 267.45 650.051 264.399 653.728 264.399ZM653.728 268.933C652.501 268.933 651.504 269.95 651.504 271.199C651.504 272.448 652.501 273.466 653.728 273.466C654.955 273.466 655.952 272.448 655.952 271.199C655.952 269.95 654.955 268.933 653.728 268.933Z" fill="#CD3C52" fill-opacity="0.41"/>
<path d="M704.863 293.865C708.541 293.865 711.533 296.916 711.533 300.665C711.533 304.414 708.541 307.465 704.863 307.465C701.186 307.465 698.194 304.414 698.193 300.665C698.193 296.916 701.186 293.865 704.863 293.865ZM704.863 298.398C703.636 298.398 702.64 299.416 702.64 300.665C702.64 301.914 703.636 302.932 704.863 302.932C706.091 302.932 707.087 301.914 707.087 300.665C707.087 299.416 706.091 298.398 704.863 298.398Z" fill="#CD3C52" fill-opacity="0.41"/>
<path d="M655.951 323.33C659.629 323.33 662.621 326.381 662.621 330.13C662.621 333.879 659.629 336.93 655.951 336.93C652.274 336.93 649.281 333.879 649.281 330.13C649.281 326.381 652.274 323.33 655.951 323.33ZM655.951 327.863C654.724 327.863 653.728 328.879 653.728 330.13C653.728 331.381 654.724 332.396 655.951 332.396C657.178 332.396 658.175 331.381 658.175 330.13C658.175 328.879 657.179 327.863 655.951 327.863Z" fill="#CD3C52" fill-opacity="0.41"/>
</g>
</g>
<defs>
<linearGradient id="paint0_linear_800_106612" x1="2160" y1="240" x2="1872" y2="-624" gradientUnits="userSpaceOnUse">
<stop stop-color="#611A24"/>
<stop offset="1" stop-color="#CD3C52"/>
</linearGradient>
<clipPath id="clip0_800_106612">
<rect width="1440" height="480" fill="white"/>
</clipPath>
<clipPath id="clip1_800_106612">
<rect width="1393.04" height="382" fill="white" transform="translate(126.957 9)"/>
</clipPath>
</defs>
</svg>
